<?xml version="1.0" encoding="UTF-8" standalone="no"?>
<!-- Created with Inkscape (http://www.inkscape.org/) -->
<svg
   xmlns:dc="http://purl.org/dc/elements/1.1/"
   xmlns:cc="http://web.resource.org/cc/"
   xmlns:rdf="http://www.w3.org/1999/02/22-rdf-syntax-ns#"
   xmlns:svg="http://www.w3.org/2000/svg"
   xmlns="http://www.w3.org/2000/svg"
   xmlns:sodipodi="http://sodipodi.sourceforge.net/DTD/sodipodi-0.dtd"
   xmlns:inkscape="http://www.inkscape.org/namespaces/inkscape"
   id="svg2"
   sodipodi:version="0.32"
   inkscape:version="0.45"
   width="589"
   height="585"
   version="1.0"
   sodipodi:docbase="/home/maxime"
   sodipodi:docname="Canton_valais-drapeau.png"
   sodipodi:modified="true">
  <metadata
     id="metadata7">
    <rdf:RDF>
      <cc:Work
         rdf:about="">
        <dc:format>image/svg+xml</dc:format>
        <dc:type
           rdf:resource="http://purl.org/dc/dcmitype/StillImage" />
      </cc:Work>
    </rdf:RDF>
  </metadata>
  <defs
     id="defs5" />
  <sodipodi:namedview
     inkscape:window-height="588"
     inkscape:window-width="797"
     inkscape:pageshadow="2"
     inkscape:pageopacity="0.0"
     guidetolerance="10.0"
     gridtolerance="10.0"
     objecttolerance="10.0"
     borderopacity="1.0"
     bordercolor="#666666"
     pagecolor="#ffffff"
     id="base"
     inkscape:zoom="0.64102564"
     inkscape:cx="305.36717"
     inkscape:cy="161.5207"
     inkscape:window-x="15"
     inkscape:window-y="99"
     inkscape:current-layer="svg2" />
  <path
     style="fill:#db2200"
     d="M 296.12,586.68 L 1.5566,586.68 L 1.80964,292.81 L 2.0626802,-1.06 L 296.12,-1.06 L 590.17732,-1.06 L 590.43036,292.81 L 590.6834,586.68 L 296.12,586.68 z M 150.348,582.63708 L 294.10936,582.63708 L 294.10936,537.65956 L 294.10936,492.68202 L 294.86334,492.72693 C 295.27804,492.75162 303.30806,498.39543 312.70784,505.26873 C 322.10762,512.14202 329.91293,517.65409 330.05296,517.51775 C 330.19299,517.38143 326.77727,509.09035 322.46245,499.09312 L 314.61736,480.91634 L 331.16423,469.86943 L 347.71108,458.82254 L 327.08119,458.54977 L 306.45132,458.27702 L 300.33668,441.36735 L 294.22202,424.4577 L 294.1657,458.46544 L 294.10936,492.47318 L 275.27751,504.64021 C 264.91999,511.33211 256.31409,516.675 256.15329,516.51333 C 255.99248,516.35165 259.71665,508.13765 264.42922,498.25996 C 269.1418,488.38229 272.99754,479.93065 272.99754,479.47856 C 272.99754,479.02647 266.38128,473.85281 258.29475,467.98151 L 243.59196,457.30644 L 262.14714,457.30644 L 280.70232,457.30644 L 287.40585,439.27048 L 294.10936,421.23453 L 294.10936,406.42172 L 294.10936,391.60894 L 294.86334,391.65385 C 295.27804,391.67854 303.30806,397.32235 312.70784,404.19565 C 322.10762,411.06892 329.91293,416.58099 330.05296,416.44467 C 330.19299,416.30835 326.77727,408.01725 322.46245,398.02002 L 314.61736,379.84324 L 331.16423,368.79635 L 347.71108,357.74946 L 327.08119,357.47669 L 306.45132,357.20392 L 300.33668,340.29427 L 294.22202,323.3846 L 294.1657,357.39234 L 294.10936,391.40008 L 275.27751,403.56713 C 264.91999,410.25901 256.31409,415.60192 256.15329,415.44025 C 255.99248,415.27857 259.71665,407.06457 264.42922,397.18688 C 269.1418,387.30921 272.99754,378.85757 272.99754,378.40548 C 272.99754,377.95339 266.38128,372.77973 258.29475,366.90843 L 243.59196,356.23336 L 262.14714,356.23336 L 280.70232,356.23336 L 287.40585,338.1974 L 294.10936,320.16143 L 294.10936,307.87546 L 294.10936,295.5895 L 294.86334,295.63441 C 295.27804,295.6591 303.30806,301.30291 312.70784,308.17621 C 322.10762,315.0495 329.91293,320.56157 330.05296,320.42523 C 330.19299,320.28891 326.77727,311.99783 322.46245,302.0006 L 314.61736,283.82382 L 331.16423,272.77693 L 347.71108,261.73002 L 327.08119,261.45725 L 306.45132,261.1845 L 300.33668,244.27483 L 294.22202,227.36518 L 294.1657,261.37292 L 294.10936,295.38066 L 275.27751,307.54769 C 264.91999,314.23959 256.31409,319.58248 256.15329,319.42081 C 255.99248,319.25913 259.71665,311.04513 264.42922,301.16746 C 269.1418,291.28977 272.99754,282.83813 272.99754,282.38604 C 272.99754,281.93395 266.38128,276.76029 258.29475,270.88899 L 243.59196,260.21392 L 262.14714,260.21392 L 280.70232,260.21392 L 287.40585,242.17796 L 294.10936,224.14201 L 294.10936,216.9097 L 294.10936,209.67738 L 294.86334,209.72229 C 295.27804,209.74698 303.30806,215.39079 312.70784,222.26409 C 322.10762,229.13738 329.91293,234.64945 330.05296,234.51311 C 330.19299,234.37679 326.77727,226.08571 322.46245,216.08848 L 314.61736,197.9117 L 331.16423,186.86479 L 347.71108,175.8179 L 327.08119,175.54513 L 306.45132,175.27238 L 300.33668,158.36271 L 294.22202,141.45306 L 294.1657,175.4608 L 294.10936,209.46852 L 275.27751,221.63557 C 264.91999,228.32747 256.31409,233.67036 256.15329,233.50869 C 255.99248,233.34701 259.71665,225.13301 264.42922,215.25532 C 269.1418,205.37765 272.99754,196.92601 272.99754,196.47392 C 272.99754,196.02183 266.38128,190.84817 258.29475,184.97687 L 243.59196,174.3018 L 262.14714,174.3018 L 280.70232,174.3018 L 287.40585,156.26584 L 294.10936,138.22989 L 294.10936,129.48148 L 294.10936,120.73306 L 294.86334,120.77797 C 295.27804,120.80266 303.30806,126.44647 312.70784,133.31977 C 322.10762,140.19306 329.91293,145.70513 330.05296,145.56879 C 330.19299,145.43247 326.77727,137.14139 322.46245,127.14416 L 314.61736,108.96738 L 331.16423,97.92048 L 347.71108,86.873586 L 327.08119,86.600822 L 306.45132,86.328059 L 300.33668,69.418396 L 294.22202,52.508736 L 294.1657,86.516472 L 294.10936,120.52422 L 275.27751,132.69125 C 264.91999,139.38315 256.31409,144.72604 256.15329,144.56437 C 255.99248,144.40269 259.71665,136.18869 264.42922,126.31102 C 269.1418,116.43333 272.99754,107.98169 272.99754,107.5296 C 272.99754,107.07751 266.38128,101.90385 258.29475,96.032561 L 243.59196,85.35749 L 262.14714,85.35749 L 280.70232,85.35749 L 287.40585,67.321526 L 294.10936,49.285563 L 294.10936,26.386926 L 294.10936,3.488289 L 150.348,3.488289 L 6.586639,3.488289 L 6.586639,293.06268 L 6.586639,582.63708 L 150.348,582.63708 z M 163.21329,471.99047 C 163.04899,472.15122 155.22382,466.65912 145.82404,459.78585 C 136.42426,452.91255 128.28112,447.27825 127.7282,447.26518 C 127.17528,447.25211 118.3626,452.66103 108.14447,459.28503 C 97.926362,465.90902 89.436078,471.19795 89.277186,471.03819 C 89.118294,470.87844 92.841512,462.41548 97.551014,452.23158 C 102.2605,442.04769 106.11374,433.35925 106.11374,432.92393 C 106.11374,432.48861 99.473476,427.56294 91.357614,421.97799 L 76.601486,411.82356 L 95.226524,411.82356 L 113.85157,411.82356 L 120.18828,394.64114 C 123.67345,385.1908 126.61905,377.45872 126.73404,377.45872 C 126.84902,377.45872 129.78135,385.40917 133.2503,395.1264 L 139.55751,412.79409 L 160.21776,413.06688 L 180.878,413.33966 L 164.82621,424.00432 L 148.77441,434.66898 L 156.14323,453.18361 C 160.1961,463.36664 163.37762,471.82974 163.21329,471.99047 z M 163.21329,371.92813 C 163.04899,372.08886 155.22382,366.59676 145.82404,359.72349 C 136.42426,352.85019 128.28112,347.21589 127.7282,347.20282 C 127.17528,347.18975 118.3626,352.59869 108.14447,359.22267 C 97.926362,365.84666 89.436078,371.13559 89.277186,370.97583 C 89.118294,370.81608 92.841512,362.35312 97.551014,352.16924 C 102.2605,341.98535 106.11374,333.29689 106.11374,332.86157 C 106.11374,332.42625 99.473476,327.50058 91.357614,321.91565 L 76.601486,311.7612 L 95.226524,311.7612 L 113.85157,311.7612 L 120.18828,294.57878 C 123.67345,285.12844 126.61905,277.39636 126.73404,277.39636 C 126.84902,277.39636 129.78135,285.34681 133.2503,295.06406 L 139.55751,312.73173 L 160.21776,313.00452 L 180.878,313.2773 L 164.82621,323.94196 L 148.77441,334.60664 L 156.14323,353.12125 C 160.1961,363.3043 163.37762,371.76738 163.21329,371.92813 z M 163.21329,275.90869 C 163.04899,276.06942 155.22382,270.57734 145.82404,263.70405 C 136.42426,256.83077 128.28112,251.19647 127.7282,251.1834 C 127.17528,251.17033 118.3626,256.57925 108.14447,263.20323 C 97.926362,269.82724 89.436078,275.11615 89.277186,274.95639 C 89.118294,274.79666 92.841512,266.33368 97.551014,256.1498 C 102.2605,245.96591 106.11374,237.27747 106.11374,236.84215 C 106.11374,236.40683 99.473476,231.48116 91.357614,225.89621 L 76.601486,215.74178 L 95.226524,215.74178 L 113.85157,215.74178 L 120.18828,198.55934 C 123.67345,189.10902 126.61905,181.37692 126.73404,181.37692 C 126.84902,181.37692 129.78135,189.32739 133.2503,199.04462 L 139.55751,216.71231 L 160.21776,216.9851 L 180.878,217.25786 L 164.82621,227.92254 L 148.77441,238.5872 L 156.14323,257.10181 C 160.1961,267.28486 163.37762,275.74796 163.21329,275.90869 z M 164.21863,177.86779 C 164.05431,178.02854 156.22914,172.53644 146.82936,165.66315 C 137.42958,158.78987 129.28646,153.15557 128.73352,153.1425 C 128.1806,153.12943 119.36792,158.53835 109.14981,165.16235 C 98.931686,171.78634 90.441402,177.07527 90.28251,176.91551 C 90.123618,176.75576 93.846836,168.29278 98.556338,158.1089 C 103.26582,147.92501 107.11906,139.23657 107.11906,138.80125 C 107.11906,138.36593 100.47879,133.44026 92.362938,127.85531 L 77.60681,117.70088 L 96.200874,117.70088 L 114.79493,117.70088 L 121.69326,100.30439 L 128.59159,82.907902 L 134.52023,100.78947 L 140.44886,118.67107 L 161.16609,118.94402 L 181.88332,119.21698 L 165.83153,129.88164 L 149.77973,140.5463 L 157.14857,159.06093 C 161.20142,169.24396 164.38294,177.70706 164.21863,177.86779 z M 509.04481,482.09779 C 509.20914,481.93706 506.0276,473.47396 501.97475,463.29091 L 494.60593,444.7763 L 510.65771,434.11164 L 526.70952,423.44696 L 505.99229,423.174 L 485.27506,422.90105 L 479.34641,405.01947 L 473.41777,387.1379 L 466.51946,404.53439 L 459.62113,421.93086 L 441.02706,421.93086 L 422.43301,421.93086 L 437.18913,432.08531 C 445.30499,437.67026 451.94524,442.59591 451.94524,443.03123 C 451.94524,443.46657 448.09202,452.15501 443.38253,462.3389 C 438.67303,472.52278 434.94981,480.98576 435.1087,481.14549 C 435.26759,481.30525 443.75787,476.01634 453.97599,469.39233 C 464.19412,462.76835 473.00678,457.35943 473.55972,457.37248 C 474.11264,457.38555 482.25578,463.01985 491.65556,469.89315 C 501.05534,476.76644 508.88051,482.25852 509.04481,482.09779 z M 509.04481,382.03543 C 509.20914,381.8747 506.0276,373.4116 501.97475,363.22855 L 494.60593,344.71394 L 510.65771,334.04928 L 526.70952,323.3846 L 505.99229,323.11166 L 485.27506,322.83871 L 479.34641,304.95711 L 473.41777,287.07554 L 466.51946,304.47203 L 459.62113,321.86852 L 441.02706,321.86852 L 422.43301,321.86852 L 437.18913,332.02295 C 445.30499,337.6079 451.94524,342.53357 451.94524,342.96889 C 451.94524,343.40421 448.09202,352.09265 443.38253,362.27654 C 438.67303,372.46042 434.94981,380.9234 435.1087,381.08315 C 435.26759,381.24289 443.75787,375.95398 453.97599,369.32997 C 464.19412,362.70599 473.00678,357.29707 473.55972,357.31014 C 474.11264,357.32321 482.25578,362.95751 491.65556,369.83079 C 501.05534,376.70408 508.88051,382.19616 509.04481,382.03543 z M 509.04481,286.01599 C 509.20914,285.85526 506.0276,277.39216 501.97475,267.20913 L 494.60593,248.6945 L 510.65771,238.02984 L 526.70952,227.36518 L 505.99229,227.09222 L 485.27506,226.81927 L 479.34641,208.93769 L 473.41777,191.0561 L 466.51946,208.45259 L 459.62113,225.84908 L 441.02706,225.84908 L 422.43301,225.84908 L 437.18913,236.00351 C 445.30499,241.58846 451.94524,246.51413 451.94524,246.94945 C 451.94524,247.38477 448.09202,256.07321 443.38253,266.2571 C 438.67303,276.441 434.94981,284.90396 435.1087,285.06371 C 435.26759,285.22347 443.75787,279.93454 453.97599,273.31055 C 464.19412,266.68655 473.00678,261.27763 473.55972,261.2907 C 474.11264,261.30377 482.25578,266.93807 491.65556,273.81137 C 501.05534,280.68464 508.88051,286.17674 509.04481,286.01599 z M 509.04481,194.03949 C 509.20914,193.87876 506.0276,185.41566 501.97475,175.23261 L 494.60593,156.718 L 510.65771,146.05334 L 526.70952,135.38866 L 505.99229,135.1157 L 485.27506,134.84277 L 479.34641,116.96117 L 473.41777,99.079596 L 466.51946,116.47609 L 459.62113,133.87258 L 441.02706,133.87258 L 422.43301,133.87258 L 437.18913,144.02701 C 445.30499,149.61196 451.94524,154.53763 451.94524,154.97295 C 451.94524,155.40827 448.09202,164.09671 443.38253,174.2806 C 438.67303,184.46448 434.94981,192.92746 435.1087,193.08719 C 435.26759,193.24695 443.75787,187.95804 453.97599,181.33403 C 464.19412,174.71005 473.00678,169.30113 473.55972,169.3142 C 474.11264,169.32727 482.25578,174.96157 491.65556,181.83485 C 501.05534,188.70814 508.88051,194.20022 509.04481,194.03949 z "
     id="path2161" />
</svg>
