<svg width="750" height="412" viewBox="0 0 750 412" fill="none" xmlns="http://www.w3.org/2000/svg">
<g clip-path="url(#clip0_74_4422)">
<path d="M673.73 290.58H492.98C489.75 290.58 487.12 287.95 487.12 284.72V21.4498C487.12 18.2198 489.75 15.5898 492.98 15.5898H673.73C676.96 15.5898 679.59 18.2198 679.59 21.4498V284.72C679.59 287.95 676.96 290.58 673.73 290.58ZM492.99 15.8298C489.9 15.8298 487.38 18.3498 487.38 21.4398V284.72C487.38 287.81 489.9 290.33 492.99 290.33H673.74C676.83 290.33 679.35 287.81 679.35 284.72V21.4498C679.35 18.3598 676.83 15.8398 673.74 15.8398H492.99V15.8298Z" fill="#E0E0E0"/>
<path d="M465.31 290.58H284.56C281.33 290.58 278.7 287.95 278.7 284.72V21.4498C278.7 18.2198 281.33 15.5898 284.56 15.5898H465.31C468.54 15.5898 471.17 18.2198 471.17 21.4498V284.72C471.17 287.95 468.54 290.58 465.31 290.58ZM284.56 15.8298C281.47 15.8298 278.95 18.3498 278.95 21.4398V284.72C278.95 287.81 281.47 290.33 284.56 290.33H465.31C468.4 290.33 470.92 287.81 470.92 284.72V21.4498C470.92 18.3598 468.4 15.8398 465.31 15.8398H284.56V15.8298Z" fill="#E0E0E0"/>
<path d="M257.01 290.58H76.2701C73.0401 290.58 70.4102 287.95 70.4102 284.72V21.4498C70.4102 18.2198 73.0401 15.5898 76.2701 15.5898H257.02C260.25 15.5898 262.88 18.2198 262.88 21.4498V284.72C262.88 287.95 260.25 290.58 257.02 290.58H257.01ZM76.2701 15.8298C73.1801 15.8298 70.6602 18.3498 70.6602 21.4398V284.72C70.6602 287.81 73.1801 290.33 76.2701 290.33H257.02C260.11 290.33 262.63 287.81 262.63 284.72V21.4498C262.63 18.3598 260.11 15.8398 257.02 15.8398H76.2701V15.8298Z" fill="#E0E0E0"/>
<path d="M750 351.65H0V351.77H750V351.65Z" fill="#E0E0E0"/>
<path d="M619.94 379.45C620.25 375.71 619.74 370.87 615.39 369.44C607.99 367 603.62 361.28 603.86 354.81C604.1 348.34 596.33 342.04 590.5 348.1C584.67 354.17 585.44 343.43 577.66 340.82C569.88 338.21 563.28 344.55 565.42 350.32C567.56 356.1 559.88 359.72 550.69 354.8C541.5 349.88 531.38 358.83 533.33 365.82C535.28 372.81 533.68 373.66 527.87 371.27C523.18 369.37 515.49 373.34 514.63 379.44H619.96L619.94 379.45Z" fill="#EBEBEB"/>
<path d="M120.49 379.45C120.84 376.48 120.69 372.17 117.03 370.96C111.29 369.06 107.88 364.62 108.07 359.6C108.26 354.58 102.23 349.68 97.7 354.37C93.18 359.06 93.78 350.75 87.74 348.72C81.7 346.69 76.57 351.61 78.24 356.09C79.9 360.57 73.93 363.39 66.8 359.57C59.67 355.75 51.82 362.72 53.32 368.16C54.82 373.6 53.59 374.19 49.08 372.38C45.25 370.85 38.9 374.3 38.75 379.44H120.49V379.45Z" fill="#EBEBEB"/>
<path d="M100.02 379.45H234.29C236.19 373.15 231.3 365.59 225.97 364.52C219.43 363.21 212.9 351.71 212.56 344.39C212.22 337.07 200.48 314.54 182.18 328.45C163.88 342.36 169.45 330.5 156.2 326.59C142.95 322.68 134.6 333.92 140.42 342.36C140.42 342.36 127.11 339.03 121.63 351.45C116.15 363.87 121.63 371.58 121.63 371.58C121.63 371.58 104.82 371.1 100.02 379.45Z" fill="#EBEBEB"/>
<path d="M324.86 75.7599C324.86 71.0099 328.71 67.1499 333.46 67.1399C334.3 67.1399 335.13 67.2699 335.94 67.5099C335.8 66.6399 335.74 65.7599 335.74 64.8699C335.74 54.8099 343.9 46.6499 353.96 46.6499C355.08 46.6499 356.2 46.7499 357.31 46.9499C361.88 39.4299 371.67 37.0399 379.19 41.6099C383.88 44.4599 386.77 49.5199 386.85 54.9999H387.12C395.23 54.9999 401.8 61.5699 401.8 69.6799C401.8 77.7899 395.23 84.3599 387.12 84.3599H333.2C328.55 84.2199 324.85 80.4099 324.86 75.7599Z" fill="#F5F5F5"/>
<path d="M72.96 16.64C72.96 14.47 74.7 12.71 76.87 12.71C77.26 12.71 77.65 12.77 78.02 12.88C77.96 12.48 77.93 12.08 77.93 11.68C77.93 7.08996 81.65 3.35996 86.25 3.35996C86.76 3.35996 87.28 3.40996 87.78 3.49996C89.87 0.0699623 94.34 -1.02004 97.77 1.06996C99.91 2.36996 101.23 4.67996 101.26 7.17996H101.38C105.08 7.17996 108.07 10.18 108.07 13.88C108.07 17.57 105.07 20.57 101.38 20.57H76.83C74.69 20.53 72.97 18.79 72.97 16.65L72.96 16.64Z" fill="#F0F0F0"/>
<path d="M77.2202 196.54C77.2202 193.72 79.4902 191.43 82.3102 191.42C82.8202 191.42 83.3202 191.49 83.8102 191.64C83.7402 191.12 83.7002 190.6 83.6902 190.07C83.6902 184.09 88.5302 179.25 94.5102 179.25C95.1802 179.25 95.8402 179.31 96.5002 179.44C99.2102 174.98 105.03 173.56 109.5 176.27C112.28 177.96 114 180.96 114.04 184.22H114.19C119 184.22 122.9 188.13 122.89 192.94C122.89 197.75 118.99 201.64 114.19 201.64H82.2402C79.4502 201.59 77.2202 199.32 77.2202 196.54Z" fill="#F0F0F0"/>
<path d="M609.99 204.94C609.99 202.03 612.34 199.66 615.25 199.65C615.77 199.65 616.29 199.72 616.8 199.88C616.72 199.34 616.68 198.8 616.68 198.26C616.68 192.08 621.69 187.08 627.86 187.08C628.55 187.08 629.24 187.15 629.92 187.27C632.73 182.66 638.74 181.19 643.35 184C646.22 185.75 648 188.85 648.05 192.21H648.21C653.18 192.21 657.21 196.25 657.21 201.22C657.21 206.19 653.18 210.21 648.21 210.22H615.19C612.31 210.17 610 207.82 610 204.94H609.99Z" fill="#F0F0F0"/>
<path d="M435.16 42.17C435.16 39.77 437.11 37.82 439.51 37.82C439.93 37.82 440.35 37.88 440.76 37.99C440.7 37.55 440.67 37.1 440.67 36.66C440.67 31.57 444.8 27.44 449.89 27.44C450.46 27.44 451.03 27.49 451.59 27.6C453.89 23.8 458.83 22.58 462.63 24.87C465.01 26.31 466.48 28.88 466.51 31.67H466.65C470.75 31.67 474.07 35 474.07 39.09C474.07 43.18 470.75 46.5 466.65 46.51H439.39C437.03 46.45 435.16 44.52 435.16 42.16V42.17Z" fill="#F5F5F5"/>
<path d="M390.05 111.82C390.05 109.57 391.87 107.75 394.12 107.75C394.51 107.75 394.91 107.8 395.29 107.91C395.24 107.5 395.21 107.08 395.21 106.66C395.21 101.89 399.07 98.03 403.84 98.03C404.37 98.03 404.9 98.08 405.43 98.18C407.58 94.62 412.21 93.48 415.77 95.63C418 96.98 419.38 99.39 419.41 101.99H419.55C423.39 101.99 426.5 105.1 426.49 108.94C426.49 112.77 423.38 115.88 419.55 115.88H394.03C391.82 115.82 390.07 114.02 390.07 111.81L390.05 111.82Z" fill="#E6E6E6"/>
<path d="M290.45 87.15C289.08 85.98 287.37 84.43 287.96 82.79C288.44 81.46 290.13 81.0101 291.09 79.9601C293.05 77.8201 291.22 74.3301 288.92 72.5701C286.62 70.8101 283.65 69.4601 282.7 66.7101C282.54 65.9701 282.28 65.2501 281.93 64.5701C280.55 62.5101 277.34 63.8801 275.35 65.3401C274.67 65.8401 273.85 66.3101 273.01 66.6501C272.72 65.5001 272.18 64.4701 271.45 63.8501C270.1 62.6801 268.37 61.1301 268.96 59.4901C269.44 58.1401 271.13 57.7101 272.1 56.6601C274.04 54.5201 272.22 51.0301 269.91 49.2701C267.6 47.5101 264.64 46.1601 263.7 43.4101C263.53 42.6601 263.27 41.9401 262.91 41.2701C261.53 39.2101 258.32 40.5501 256.32 42.0301C254.33 43.5101 251.1 44.8101 249.74 42.7201C248.95 41.5201 249.41 39.8101 248.65 38.5901C247.38 36.5501 244.16 37.5201 242.33 39.0701C240.5 40.6201 238.48 42.6901 236.14 42.1501H236.12C236.72 41.9001 237.38 41.6901 237.94 41.4001C240.94 39.8201 240.52 34.0601 238.25 32.1301C236.88 30.9601 235.17 29.4301 235.76 27.7801C236.24 26.4301 237.93 26.0001 238.89 24.9301C240.85 22.7901 239.02 19.2801 236.72 17.5401C234.42 15.7901 231.45 14.4301 230.5 11.6801C230.34 10.9401 230.08 10.2201 229.73 9.54006C228.35 7.48006 225.12 8.83006 223.15 10.3101C221.17 11.7901 217.93 13.0801 216.57 10.9801C215.8 9.78005 216.24 8.08005 215.48 6.85005C214.23 4.81005 211 5.76006 209.17 7.33006C207.34 8.89006 205.32 10.9501 202.98 10.4101C200.94 9.93006 199.82 7.63006 197.65 7.36006C195.48 7.10006 193.75 9.32005 193.22 11.4401C192.69 13.5601 192.73 15.9001 191.57 17.7801C191.47 17.7601 191.36 17.7401 191.25 17.7301C189.78 16.6801 188.46 15.5301 187.88 13.8701C187.72 13.1301 187.46 12.4101 187.11 11.7301C185.73 9.67005 182.5 11.0101 180.52 12.4901C178.54 13.9701 175.3 15.2701 173.93 13.1801C173.16 11.9801 173.6 10.2701 172.84 9.05005C171.59 7.01005 168.36 7.98005 166.53 9.53005C164.7 11.0801 162.68 13.1501 160.34 12.5901C158.3 12.1101 157.18 9.81006 155.01 9.54006C152.84 9.28006 151.11 11.5001 150.58 13.6201C150.05 15.7401 150.09 18.0801 148.93 19.9601C145.77 19.3501 141.44 19.4701 140.7 22.5601C140.39 23.8801 140.95 25.1301 141.73 26.3001C141.34 26.5201 140.97 26.7601 140.65 27.0301C138.81 28.5801 136.78 30.6501 134.44 30.1101C132.42 29.6301 131.31 27.3301 129.12 27.0601C126.93 26.8001 125.2 29.0201 124.69 31.1401C124.18 33.2601 124.2 35.6001 123.04 37.4601C119.86 36.8701 115.55 36.9801 114.81 40.0801C114.32 42.1201 115.9 44.0101 117.2 45.6801C118.5 47.3401 119.59 49.7601 118.24 51.4101C116.06 51.3001 113.89 51.8401 112.02 52.9701C110.13 54.1801 109.38 56.5801 110.24 58.6501C111.2 60.0001 112.6 60.9701 114.19 61.4201C118.86 63.3101 117.37 67.4601 115.98 70.8001C115.82 70.7901 115.67 70.7901 115.5 70.7501C113.46 70.2701 112.34 67.9701 110.17 67.7001C108 67.4401 106.27 69.6601 105.74 71.7801C105.21 73.9001 105.25 76.2401 104.09 78.1001C100.91 77.5101 96.6 77.6201 95.86 80.7201C95.37 82.7601 96.96 84.6501 98.25 86.3201C99.53 87.9801 100.62 90.4001 99.29 92.0501C97.1 91.9601 94.93 92.5401 93.07 93.7001C91.18 94.9101 90.43 97.3001 91.28 99.3801C92.25 100.73 93.65 101.7 95.25 102.15C103.45 105.46 92.68 115.75 96.75 116.42C101.95 117.29 108.08 116.27 108.45 122.68C108.5 123.72 108.65 124.76 108.91 125.77C109.9 129.33 112.43 130.84 117.65 128.35C120.96 126.79 121.77 124.84 125.54 125.32C128.24 125.63 130.2 127.53 133.18 127.28C133.59 127.28 134 127.17 134.37 126.98C134.74 126.74 135.05 126.41 135.28 126.03C137.93 122.26 140 123.79 144.33 123.61C144.67 123.63 145.01 123.53 145.28 123.33C145.54 123.06 145.68 122.7 145.68 122.33C145.79 121.22 145.68 120.11 145.38 119.04C145.16 118.52 145.1 117.95 145.22 117.39C145.43 116.65 146.37 116.37 147.08 116.02C147.35 115.87 147.61 115.7 147.86 115.51C149.19 114.48 149.95 112.99 150.12 111.44C154.2 111.82 158 112.32 158.29 117.29C158.33 118.34 158.49 119.37 158.77 120.38C159.74 123.94 162.28 125.45 167.48 122.96C170.79 121.4 171.6 119.45 175.37 119.93C178.07 120.24 180.03 122.14 183.01 121.89C183.42 121.89 183.83 121.78 184.2 121.59C184.57 121.35 184.88 121.02 185.11 120.64C187.76 116.87 189.83 118.4 194.16 118.22C194.25 118.23 194.35 118.24 194.44 118.22C195.09 118.16 195.57 117.58 195.51 116.93C195.61 115.85 195.51 114.76 195.21 113.72C194.99 113.2 194.93 112.63 195.05 112.07C195.26 111.33 196.2 111.03 196.91 110.7C197.19 110.55 197.46 110.37 197.72 110.17C198.46 109.59 199.01 108.86 199.39 108.06C200.77 108.48 202.63 108.21 205.09 107.03C208.42 105.48 209.22 103.52 212.99 104.02C215.69 104.33 217.65 106.21 220.63 105.98C221.04 105.96 221.45 105.86 221.82 105.67C222.19 105.42 222.5 105.1 222.73 104.72C222.8 104.62 222.87 104.53 222.94 104.44C223 105.06 222.89 105.65 222.48 106.15C220.75 106.06 219.03 106.49 217.54 107.38C216.04 108.33 215.45 110.22 216.14 111.86C216.9 112.92 218 113.68 219.25 114.03C225.7 116.63 217.23 124.73 220.44 125.26C224.54 125.95 229.35 125.14 229.66 130.2C229.69 131.02 229.82 131.84 230.02 132.64C230.79 135.44 232.79 136.56 236.95 134.65C239.57 133.42 240.19 131.88 243.17 132.26C245.31 132.54 246.84 134 249.18 133.81C249.51 133.81 249.83 133.72 250.12 133.58C250.4 133.38 250.65 133.12 250.83 132.82C252.9 129.86 254.55 131.06 257.96 130.91C258.23 130.91 258.49 130.84 258.72 130.7C258.92 130.48 259.02 130.2 259.02 129.91C259.11 129.06 259.03 128.2 258.81 127.37C258.62 126.96 258.57 126.5 258.66 126.05C258.87 125.46 259.57 125.24 260.14 124.96C260.35 124.84 260.55 124.71 260.74 124.56C262.15 123.47 262.74 121.73 262.47 120.09C263.22 119.87 264.07 119.78 265.21 119.92C267.91 120.23 269.87 122.13 272.85 121.88C273.26 121.88 273.67 121.77 274.04 121.58C274.41 121.33 274.71 121 274.95 120.63C277.58 116.86 279.67 118.39 284 118.21C284.34 118.23 284.68 118.13 284.95 117.93C285.2 117.66 285.34 117.3 285.33 116.93C285.44 115.85 285.35 114.76 285.05 113.72C284.83 113.2 284.76 112.63 284.87 112.07C285.1 111.33 286.02 111.03 286.75 110.7C287.01 110.55 287.26 110.39 287.5 110.21C290.11 108.19 290.6 104.44 288.58 101.83C287.74 100.88 286.44 100.05 286.75 98.6701C287.06 97.2901 288.91 97.0701 290.16 96.4101C293.16 94.8301 292.74 89.0701 290.49 87.1401L290.45 87.15ZM147.25 105.22C147.06 104.85 146.97 104.45 147.08 103.98C147.2 103.44 147.57 103.08 148.03 102.8C147.84 103.61 147.56 104.43 147.25 105.23V105.22Z" fill="#E6E6E6"/>
<path d="M135.74 107.07C135.74 107.07 146.56 122.38 150.29 127.24C154.03 132.1 172.7 162.34 175.23 182.34C175.49 184.46 175.77 186.31 176.04 187.9C168.01 240.91 169.26 337.87 169.55 354.47H194.98C195.21 335.75 197.37 164.64 198.17 159.42C199.01 153.89 209.69 132.83 226.07 124.19C242.45 115.55 256.69 86.92 256.69 86.92H251.45C251.45 86.92 241.74 104.45 227.93 114.17C225.95 115.54 223.87 116.77 221.72 117.86C221.76 107.3 219.89 96.83 216.22 86.93L213.39 89.53C217.21 105.17 216.68 115.18 215.55 120.92C210.33 123.36 205.52 126.59 201.28 130.48C186.94 111.84 178.89 69.22 178.89 69.22L175.22 71.23C176.26 80.03 177.84 88.76 179.96 97.37C182.64 108.4 190.55 129.16 194.22 138.53C189.82 144.85 186.19 151.67 183.4 158.84C183.01 158.24 182.55 157.68 182.02 157.19C172.69 148.74 155.14 108.89 155.14 108.89C150.89 99.62 157.38 75.29 157.38 75.29H152.44L150.25 96.56L137.94 83.13L135.7 84.99L148.75 101.8L155.47 123.09L137.94 103.66L135.73 107.07H135.74Z" fill="#EBEBEB"/>
<path d="M652.4 122.58C650.54 121.46 648.38 120.92 646.21 121.02C644.89 119.42 645.95 116.96 647.26 115.32C648.56 113.68 650.12 111.8 649.63 109.75C648.9 106.68 644.59 106.57 641.5 107.17C640.63 105.17 640.06 103.04 639.81 100.87C639.26 98.74 637.57 96.6 635.39 96.79C633.21 96.98 632.1 99.35 630.1 99.82C629.95 99.86 629.79 99.85 629.63 99.86C628.24 96.52 626.71 92.35 631.4 90.47C632.98 90.03 634.37 89.06 635.33 87.72C636.18 85.65 635.44 83.27 633.56 82.06C631.7 80.94 629.54 80.39 627.37 80.5C626.03 78.88 627.11 76.44 628.39 74.8C629.67 73.16 631.27 71.26 630.78 69.23C630.03 66.16 625.74 66.05 622.63 66.65C621.77 64.64 621.2 62.52 620.94 60.35C620.38 58.22 618.81 56.08 616.54 56.27C614.28 56.46 613.25 58.83 611.25 59.3C609.25 59.77 606.98 57.78 605.08 56.25C604.77 56 604.41 55.77 604.04 55.55C604.8 54.39 605.33 53.15 605.01 51.85C604.28 48.78 599.97 48.67 596.88 49.27C596 47.23 595.43 45.07 595.19 42.87C594.64 40.74 592.95 38.6 590.77 38.79C588.59 38.98 587.48 41.35 585.48 41.82C583.15 42.38 581.21 40.3 579.31 38.77C577.41 37.23 574.29 36.27 573.06 38.3C572.29 39.52 572.74 41.2 571.97 42.42C570.6 44.55 567.4 43.19 565.4 41.72C563.39 40.25 560.23 38.92 558.83 40.97C558.47 41.64 558.21 42.36 558.06 43.1C557.44 44.84 556.01 46.02 554.46 47.11C553.6 45.11 553.03 43 552.78 40.84C552.23 38.71 550.65 36.57 548.38 36.78C546.12 36.99 545.09 39.32 543.09 39.79C541.08 40.26 538.82 38.3 536.92 36.74C535.02 35.18 531.9 34.24 530.64 36.27C529.89 37.49 530.34 39.19 529.55 40.39C528.21 42.52 524.98 41.18 523 39.71C521.01 38.24 517.81 36.89 516.4 38.94C516.05 39.62 515.79 40.33 515.63 41.07C514.69 43.8 511.75 45.15 509.46 46.9C507.18 48.65 505.34 52.13 507.33 54.26C508.29 55.31 509.98 55.73 510.45 57.08C511.05 58.74 509.34 60.26 507.97 61.35C505.73 63.25 505.3 68.99 508.29 70.57C508.81 70.84 509.43 71.04 509.99 71.26C507.7 71.72 505.78 69.72 503.91 68.2C502.01 66.66 498.89 65.68 497.63 67.71C496.88 68.93 497.33 70.63 496.54 71.83C495.2 73.96 491.97 72.62 489.97 71.15C487.96 69.68 484.8 68.33 483.4 70.38C483.06 71.06 482.8 71.77 482.63 72.51C481.69 75.24 478.75 76.59 476.44 78.34C474.13 80.09 472.34 83.57 474.31 85.7C475.25 86.75 476.94 87.17 477.43 88.52C477.92 89.86 476.3 91.7 474.95 92.79C474.2 93.43 473.66 94.49 473.37 95.68C472.54 95.34 471.73 94.86 471.06 94.37C469.07 92.9 465.87 91.55 464.49 93.6C464.13 94.27 463.86 94.99 463.7 95.73C462.76 98.46 459.82 99.81 457.53 101.56C455.25 103.31 453.41 106.79 455.4 108.92C456.36 109.97 458.05 110.39 458.52 111.74C459.12 113.4 457.41 114.9 456.04 116.01C453.91 117.93 453.37 123.67 456.36 125.25C457.62 125.89 459.46 126.1 459.75 127.49C460.05 128.88 458.77 129.62 457.94 130.63C455.94 133.22 456.41 136.95 459.01 138.95C459.25 139.13 459.5 139.3 459.76 139.44C460.49 139.78 461.36 140.06 461.62 140.83C461.74 141.39 461.68 141.97 461.45 142.49C461.17 143.52 461.07 144.6 461.17 145.67C461.17 146.04 461.31 146.4 461.55 146.67C461.83 146.86 462.16 146.95 462.49 146.95C466.76 147.14 468.89 145.61 471.52 149.36C471.74 149.74 472.05 150.06 472.42 150.3C472.78 150.5 473.18 150.6 473.59 150.6C476.56 150.86 478.48 149 481.19 148.66C482.31 148.52 483.15 148.61 483.88 148.82C483.65 150.42 484.24 152.1 485.61 153.16C485.8 153.31 486.01 153.45 486.23 153.57C486.79 153.85 487.49 154.06 487.7 154.66C487.79 155.11 487.74 155.57 487.55 155.98C487.33 156.79 487.26 157.64 487.34 158.48C487.27 158.97 487.62 159.42 488.11 159.49C488.2 159.5 488.3 159.5 488.39 159.49C491.78 159.64 493.41 158.44 495.48 161.39C495.66 161.68 495.9 161.94 496.18 162.14C496.47 162.29 496.79 162.37 497.12 162.37C499.45 162.56 500.98 161.11 503.1 160.83C506.07 160.47 506.69 161.98 509.29 163.2C513.45 165.29 515.44 164.1 516.21 161.3C516.41 160.51 516.53 159.7 516.57 158.89C516.87 153.87 521.67 154.62 525.75 153.98C528.93 153.45 520.5 145.44 526.92 142.79C528.17 142.46 529.26 141.7 530.02 140.66C530.68 139.03 530.09 137.16 528.61 136.2C527.14 135.32 525.45 134.9 523.74 134.98C523.32 134.46 523.21 133.85 523.3 133.21C523.35 133.28 523.4 133.33 523.45 133.4C523.68 133.78 523.98 134.11 524.35 134.36C524.72 134.54 525.13 134.65 525.55 134.66C528.52 134.89 530.44 133.06 533.15 132.72C536.91 132.23 537.7 134.17 541.01 135.73C543.46 136.96 545.32 137.26 546.7 136.85C547.08 137.63 547.62 138.35 548.36 138.92C548.61 139.11 548.87 139.29 549.15 139.44C549.88 139.78 550.75 140.06 551.01 140.83C551.12 141.39 551.06 141.97 550.84 142.49C550.56 143.52 550.46 144.6 550.56 145.67C550.56 146.04 550.69 146.4 550.94 146.67C551.22 146.86 551.54 146.95 551.88 146.95C556.15 147.14 558.28 145.61 560.89 149.36C561.11 149.74 561.42 150.06 561.79 150.3C562.16 150.49 562.57 150.6 562.99 150.6C565.94 150.86 567.88 149 570.59 148.66C574.35 148.19 575.14 150.11 578.45 151.67C583.62 154.21 586.13 152.65 587.12 149.11C587.39 148.11 587.55 147.07 587.59 146.04C587.89 141.04 591.63 140.57 595.76 140.2C595.94 141.72 596.69 143.17 597.99 144.18C598.24 144.37 598.5 144.55 598.78 144.7C599.48 145.04 600.36 145.32 600.64 146.07C600.75 146.64 600.69 147.22 600.47 147.76C600.18 148.79 600.08 149.87 600.17 150.94C600.17 151.31 600.31 151.67 600.55 151.94C600.83 152.13 601.17 152.23 601.51 152.22C605.78 152.41 607.91 150.88 610.52 154.63C610.74 155.01 611.05 155.33 611.42 155.57C611.78 155.77 612.18 155.87 612.59 155.87C615.56 156.13 617.5 154.27 620.19 153.93C623.95 153.46 624.74 155.38 628.05 156.94C633.22 159.52 635.73 158.03 636.72 154.49C636.97 153.48 637.12 152.45 637.17 151.42C637.55 145.02 643.57 146.04 648.83 145.19C652.89 144.51 642.17 134.28 650.32 130.99C651.91 130.56 653.3 129.58 654.25 128.24C655.1 126.17 654.36 123.79 652.48 122.58H652.4ZM597.73 131.65C598.2 131.92 598.57 132.25 598.69 132.76C598.8 133.22 598.69 133.63 598.49 134.01C598.19 133.24 597.91 132.44 597.73 131.65Z" fill="#E6E6E6"/>
<path d="M609.99 135.9C609.99 135.9 599.21 151.14 595.5 155.97C591.79 160.79 573.21 190.87 570.7 210.79C570.42 212.92 570.15 214.74 569.89 216.34C577.87 269.06 576.64 365.53 576.29 382.05H550.95C550.72 363.41 548.56 193.18 547.77 187.99C546.94 182.48 536.35 161.54 520.02 152.94C503.69 144.34 489.62 115.82 489.62 115.82H494.83C494.83 115.82 504.5 133.26 518.31 142.93C520.29 144.28 522.35 145.51 524.48 146.6C524.42 136.1 526.25 125.67 529.88 115.82L532.7 118.4C528.9 133.96 529.41 144.02 530.57 149.63C535.76 152.06 540.56 155.27 544.79 159.15C559.05 140.6 567.05 98.21 567.05 98.21L570.72 100.22C569.64 108.99 568.03 117.69 565.9 126.26C563.23 137.23 555.36 157.9 551.7 167.27C556.04 173.57 559.62 180.35 562.37 187.48C562.76 186.87 563.22 186.32 563.76 185.84C573.05 177.43 590.51 137.77 590.51 137.77C594.78 128.55 588.27 104.34 588.27 104.34H593.16L595.29 125.52L607.54 112.16L609.78 114.02L596.99 130.78L590.29 151.96L607.75 132.64L609.99 135.93V135.9Z" fill="#EBEBEB"/>
<path d="M31.1498 376.91H718.71C726.37 376.91 732.58 381.55 732.58 387.26V402.84H17.2798V387.24C17.2798 381.53 23.4998 376.9 31.1498 376.9V376.91Z" fill="#F0F0F0"/>
<path d="M87.0198 62.3L82.7898 103.01H61.5698L57.3398 62.3H87.0198Z" fill="#E0E0E0"/>
<path d="M76.1297 94.26H68.2397V370.85H76.1297V94.26Z" fill="#E0E0E0"/>
<path d="M80.5598 100.53H63.7998L60.0898 64.78H84.2698L80.5598 100.53Z" fill="#F0F0F0"/>
<path d="M69.9698 101.08H68.8298L67.5898 63.54H68.7299L69.9698 101.08Z" fill="#E0E0E0"/>
<path d="M72.18 49.22C72.18 49.22 59.6 61.61 49.96 61.61L52.95 63.58H91.36L94.35 61.61C84.76 61.63 72.18 49.22 72.18 49.22Z" fill="#E0E0E0"/>
<path d="M694.28 49.8601L689.87 93.0001H667.8L663.39 49.8601H694.28Z" fill="#E0E0E0"/>
<path d="M682.94 83.73H674.729V376.91H682.94V83.73Z" fill="#E0E0E0"/>
<path d="M687.55 90.38H670.12L666.25 52.49H691.41L687.55 90.38Z" fill="#F0F0F0"/>
<path d="M676.54 90.9699H675.35L674.06 51.1699H675.25L676.54 90.9699Z" fill="#E0E0E0"/>
<path d="M678.83 35.99C678.83 35.99 665.75 49.12 655.72 49.12L658.83 51.21H698.79L701.9 49.12C691.92 49.15 678.84 35.99 678.84 35.99H678.83Z" fill="#E0E0E0"/>
<path d="M478.26 378.94H484.66L471.58 305.15H465.19L478.26 378.94Z" fill="#E0E0E0"/>
<path d="M279.54 378.94H285.93L272.86 305.15H266.46L279.54 378.94Z" fill="#E0E0E0"/>
<path d="M474.93 342.05H223.91V348.52H474.93V342.05Z" fill="#E0E0E0"/>
<path d="M419.29 378.94H412.89L425.97 305.15H432.36L419.29 378.94Z" fill="#E0E0E0"/>
<path d="M220.56 378.94H214.17L227.24 305.15H233.63L220.56 378.94Z" fill="#E0E0E0"/>
<path d="M278.56 302.28H284.92L295.57 243.07H289.21L278.56 302.28Z" fill="#E0E0E0"/>
<path d="M463.07 302.28H469.44L480.09 243.07H473.73L463.07 302.28Z" fill="#E0E0E0"/>
<path d="M370.82 302.28H377.17L387.83 243.07H381.46L370.82 302.28Z" fill="#E0E0E0"/>
<path d="M267.56 247.11H492.84L494.83 236.02H269.56L267.56 247.11Z" fill="#E0E0E0"/>
<path d="M263.95 267.16H489.23L491.23 256.07H265.95L263.95 267.16Z" fill="#E0E0E0"/>
<path d="M260.34 287.2H485.62L487.62 276.12H262.34L260.34 287.2Z" fill="#E0E0E0"/>
<path d="M483.96 300.54H212.82V308.2H483.96V300.54Z" fill="#E0E0E0"/>
<path d="M657.2 405.69C657.2 409.08 530.85 411.82 375 411.82C219.15 411.82 92.7998 409.07 92.7998 405.69C92.7998 402.31 219.15 399.56 375 399.56C530.85 399.56 657.2 402.31 657.2 405.69Z" fill="#F5F5F5"/>
<path d="M614.82 401.82H609.82V319.8C609.82 300.54 594.15 284.88 574.9 284.88C555.65 284.88 539.97 300.55 539.97 319.8V401.82H534.97V319.8C534.97 297.79 552.88 279.88 574.9 279.88C596.92 279.88 614.82 297.79 614.82 319.8V401.82Z" fill="#263238"/>
<path opacity="0.1" d="M614.82 401.82H609.82V319.8C609.82 300.54 594.15 284.88 574.9 284.88C555.65 284.88 539.97 300.55 539.97 319.8V401.82H534.97V319.8C534.97 297.79 552.88 279.88 574.9 279.88C596.92 279.88 614.82 297.79 614.82 319.8V401.82Z" fill="white"/>
<path d="M631.75 401.82H626.75V319.8C626.75 300.54 611.08 284.88 591.82 284.88C572.56 284.88 556.89 300.55 556.89 319.8V401.82H551.89V319.8C551.89 297.79 569.8 279.88 591.82 279.88C613.84 279.88 631.75 297.79 631.75 319.8V401.82Z" fill="#263238"/>
<path opacity="0.2" d="M631.75 401.82H626.75V319.8C626.75 300.54 611.08 284.88 591.82 284.88C572.56 284.88 556.89 300.55 556.89 319.8V401.82H551.89V319.8C551.89 297.79 569.8 279.88 591.82 279.88C613.84 279.88 631.75 297.79 631.75 319.8V401.82Z" fill="white"/>
<path d="M674.08 382.49C673.5 381.52 672.22 380.33 671.32 379.65C670.42 378.97 669.19 378.63 668.14 379.06C666.81 379.6 666.2 381.24 666.38 382.66C666.57 384.09 667.25 385.89 668.06 387.08C671.52 392.15 674.72 396.79 680.07 400.56C680.07 394.27 677.28 387.86 674.08 382.49Z" fill="#716298"/>
<path d="M691.71 383.36C690.51 382.71 688.29 383.63 687.2 384.45C685.04 386.07 683.72 387.77 682.4 390.13C680.73 393.12 680.53 397.33 680.32 400C684.55 396.57 688.86 393.04 691.76 388.43C692.27 387.62 692.73 386.76 692.83 385.81C692.92 384.86 692.55 383.82 691.71 383.36Z" fill="#716298"/>
<path d="M680.71 403.24C680.59 403.24 680.49 403.16 680.47 403.04C679.47 398.41 677.69 394.02 675.19 389.99C675.12 389.87 675.15 389.72 675.27 389.65C675.39 389.58 675.54 389.61 675.61 389.73C678.14 393.81 679.93 398.25 680.95 402.94C680.98 403.07 680.89 403.21 680.76 403.24C680.74 403.24 680.72 403.24 680.71 403.24Z" fill="#263238"/>
<path d="M680.15 400.65C680.15 400.65 680.09 400.65 680.07 400.64C679.94 400.59 679.87 400.45 679.92 400.32C681.06 397.19 682.71 394.31 684.84 391.75C684.93 391.64 685.09 391.63 685.19 391.72C685.3 391.81 685.31 391.97 685.22 392.07C683.13 394.58 681.5 397.41 680.38 400.49C680.34 400.59 680.25 400.66 680.14 400.66L680.15 400.65Z" fill="#263238"/>
<path d="M66.6698 381.83C66.0898 380.86 64.8098 379.67 63.9098 378.99C63.0098 378.31 61.7798 377.97 60.7298 378.4C59.3998 378.94 58.7898 380.58 58.9698 382C59.1598 383.43 59.8398 385.23 60.6498 386.42C64.1098 391.49 67.3098 396.13 72.6598 399.9C72.6598 393.61 69.8698 387.2 66.6698 381.83Z" fill="#716298"/>
<path d="M84.2997 382.7C83.0997 382.05 80.8797 382.97 79.7897 383.79C77.6297 385.41 76.3097 387.11 74.9897 389.47C73.3197 392.46 73.1197 396.67 72.9097 399.34C77.1397 395.91 81.4497 392.38 84.3497 387.77C84.8597 386.96 85.3197 386.1 85.4197 385.15C85.5097 384.2 85.1397 383.16 84.2997 382.7Z" fill="#716298"/>
<path d="M73.2896 402.58C73.1696 402.58 73.0696 402.5 73.0496 402.38C72.0496 397.75 70.2696 393.36 67.7696 389.33C67.6996 389.21 67.7296 389.06 67.8496 388.99C67.9696 388.92 68.1196 388.95 68.1896 389.07C70.7196 393.15 72.5096 397.59 73.5296 402.28C73.5596 402.41 73.4696 402.55 73.3396 402.58C73.3196 402.58 73.2996 402.58 73.2896 402.58Z" fill="#263238"/>
<path d="M72.7396 400C72.7396 400 72.6796 400 72.6496 399.99C72.5196 399.94 72.4496 399.8 72.4996 399.67C73.6296 396.54 75.2896 393.66 77.4196 391.1C77.5096 390.99 77.6696 390.98 77.7696 391.07C77.8796 391.16 77.8896 391.32 77.7996 391.42C75.7096 393.93 74.0796 396.76 72.9596 399.84C72.9196 399.94 72.8296 400.01 72.7296 400.01L72.7396 400Z" fill="#263238"/>
<path d="M503.43 142.38H497.03V401.82H503.43V142.38Z" fill="#263238"/>
<path opacity="0.6" d="M503.43 142.38H497.03V401.82H503.43V142.38Z" fill="white"/>
<path opacity="0.3" d="M503.43 155.33H497.03V159.05H503.43V155.33Z" fill="black"/>
<path d="M527.56 66.52H472.7C469.734 66.52 467.33 68.9243 467.33 71.89V149.96C467.33 152.926 469.734 155.33 472.7 155.33H527.56C530.526 155.33 532.93 152.926 532.93 149.96V71.89C532.93 68.9243 530.526 66.52 527.56 66.52Z" fill="#716298"/>
<path d="M526.02 151.18H474.45C472.8 151.18 471.46 149.84 471.46 148.19V73.5701C471.46 71.9201 472.8 70.5801 474.45 70.5801H526.02C527.67 70.5801 529.01 71.9201 529.01 73.5701V148.19C529.01 149.84 527.67 151.18 526.02 151.18ZM474.45 71.0801C473.08 71.0801 471.96 72.2001 471.96 73.5701V148.19C471.96 149.56 473.08 150.68 474.45 150.68H526.02C527.39 150.68 528.51 149.56 528.51 148.19V73.5701C528.51 72.2001 527.39 71.0801 526.02 71.0801H474.45Z" fill="white"/>
<path d="M507.44 84.73C509.25 85.55 510.64 86.71 511.62 88.21C512.6 89.71 513.08 91.5 513.08 93.55C513.08 95.6 512.59 97.36 511.62 98.87C510.64 100.39 509.25 101.55 507.44 102.35C505.63 103.16 503.5 103.56 501.05 103.56H495.47V111.2H489.06V83.49H501.06C503.51 83.49 505.64 83.9 507.45 84.72L507.44 84.73ZM505.09 97.1C506.09 96.27 506.59 95.09 506.59 93.56C506.59 92.03 506.09 90.81 505.09 89.98C504.09 89.15 502.62 88.73 500.7 88.73H495.47V98.35H500.7C502.63 98.35 504.09 97.93 505.09 97.1Z" fill="white"/>
<path d="M489.87 141.88C485.83 141.88 482.54 138.59 482.54 134.55C482.54 130.51 485.83 127.22 489.87 127.22C493.91 127.22 497.2 130.51 497.2 134.55C497.2 138.59 493.91 141.88 489.87 141.88ZM489.87 128.22C486.38 128.22 483.54 131.06 483.54 134.55C483.54 138.04 486.38 140.88 489.87 140.88C493.36 140.88 496.2 138.04 496.2 134.55C496.2 131.06 493.36 128.22 489.87 128.22Z" fill="white"/>
<path d="M512.25 141.88C508.21 141.88 504.92 138.59 504.92 134.55C504.92 130.51 508.21 127.22 512.25 127.22C516.29 127.22 519.58 130.51 519.58 134.55C519.58 138.59 516.29 141.88 512.25 141.88ZM512.25 128.22C508.76 128.22 505.92 131.06 505.92 134.55C505.92 138.04 508.76 140.88 512.25 140.88C515.74 140.88 518.58 138.04 518.58 134.55C518.58 131.06 515.74 128.22 512.25 128.22Z" fill="white"/>
<path d="M512.25 135.05C512.06 135.05 511.88 134.94 511.79 134.76L507.5 125.25H496.21L490.35 134.06H500.07C500.35 134.06 500.57 134.28 500.57 134.56C500.57 134.84 500.35 135.06 500.07 135.06H489.42C489.24 135.06 489.07 134.96 488.98 134.8C488.89 134.64 488.9 134.44 489 134.29L495.53 124.48C495.62 124.34 495.78 124.26 495.95 124.26H507.83C508.03 124.26 508.2 124.38 508.29 124.55L512.72 134.36C512.83 134.61 512.72 134.91 512.47 135.02C512.4 135.05 512.33 135.06 512.26 135.06L512.25 135.05Z" fill="white"/>
<path d="M507.83 125.24C507.63 125.24 507.45 125.12 507.37 124.93L505.77 121.11C505.66 120.86 505.78 120.57 506.03 120.46C507.36 119.89 509.53 118.96 509.7 118.87C509.95 118.75 510.25 118.85 510.37 119.09C510.49 119.34 510.39 119.64 510.15 119.76C509.95 119.86 507.86 120.76 506.89 121.18L508.3 124.54C508.41 124.79 508.29 125.09 508.03 125.19C507.97 125.22 507.9 125.23 507.84 125.23L507.83 125.24Z" fill="white"/>
<path d="M500.07 135.05C500.07 135.05 500.02 135.05 499.99 135.05C499.82 135.02 499.67 134.91 499.61 134.75C497.63 130.09 494.58 123.01 494.21 122.36C494.1 122.23 494.06 122.05 494.12 121.88C494.21 121.62 494.49 121.48 494.75 121.56C495.03 121.65 495.15 121.69 500.22 133.62L507.7 124.97C507.88 124.76 508.2 124.74 508.4 124.92C508.61 125.1 508.63 125.42 508.45 125.63L500.45 134.89C500.35 135 500.22 135.06 500.07 135.06V135.05Z" fill="white"/>
<path d="M491.89 121.32C491.89 121.71 492.21 122.03 492.6 122.03H497.68C498.07 122.03 498.39 121.71 498.39 121.32C498.39 120.93 498.07 120.61 497.68 120.61H492.6C492.21 120.61 491.89 120.93 491.89 121.32Z" fill="white"/>
<path opacity="0.2" d="M532.93 75.5601L467.33 108.19V122.03L532.93 89.4001V75.5601Z" fill="white"/>
<path opacity="0.2" d="M533.04 94.4399L467.43 127.07V134.55L533.04 102.44V94.4399Z" fill="white"/>
<path d="M331.11 143.56L334.56 170.51L361.57 185.45L354.16 192.86L327.35 185.01C322.69 183.72 319.22 179.83 318.47 175.06L314.41 149.38L331.12 143.56H331.11Z" fill="#E9B376"/>
<path d="M330.16 122.89C327.58 117 321.77 116 320.11 116.06C315.47 116.24 319.26 124.93 317.21 129.09C312.82 137.73 317.09 159.29 317.09 159.29L339.85 155.56C337.54 143.1 333.2 130.29 330.15 122.88L330.16 122.89Z" fill="#263238"/>
<path opacity="0.3" d="M324.93 158.52L325.29 139.97L330.16 157.28L324.93 158.52Z" fill="black"/>
<path d="M252.73 143C245.77 150.69 243.99 162.3 243.02 172.67C242.06 182.9 242.09 193.22 243.13 203.44C243.39 206.04 243.78 208.7 245.08 210.9C247.9 215.66 253.86 216.71 259.1 217.31C264.18 217.89 270.02 218.2 273.6 214.31C276.42 211.25 276.87 206.58 277.15 202.3C278.29 185.29 278.95 166.22 279.95 148.62C280.33 141.98 275.4 136.21 269.18 136.39C262.94 136.58 256.23 139.12 252.72 143H252.73Z" fill="#716298"/>
<g opacity="0.3">
<path d="M252.73 143C245.77 150.69 243.99 162.3 243.02 172.67C242.06 182.9 242.09 193.22 243.13 203.44C243.39 206.04 243.78 208.7 245.08 210.9C247.9 215.66 253.86 216.71 259.1 217.31C264.18 217.89 270.02 218.2 273.6 214.31C276.42 211.25 276.87 206.58 277.15 202.3C278.29 185.29 278.95 166.22 279.95 148.62C280.33 141.98 275.4 136.21 269.18 136.39C262.94 136.58 256.23 139.12 252.72 143H252.73Z" fill="white"/>
</g>
<path opacity="0.3" d="M273.56 189.48L242.35 185.94C242.29 191.78 242.55 197.62 243.13 203.44C243.39 206.04 243.78 208.7 245.08 210.9C247.9 215.66 253.86 216.71 259.1 217.31C264.18 217.89 270.02 218.2 273.6 214.31C274.49 213.34 275.13 212.2 275.62 210.98L273.56 189.49V189.48Z" fill="white"/>
<path d="M334.53 368.22L342.71 390.28L350.12 387.89L347.56 364.6L334.53 368.22Z" fill="#E9B376"/>
<path d="M341.91 399.56L348.63 399.51C348.63 399.51 349.98 398.78 350.78 398.87C351.58 398.96 354.35 399.47 354.35 399.47L372.19 399.34C372.04 398.59 371.86 397.93 371.66 397.34C371.41 396.62 371.12 396.01 370.8 395.5C369.68 393.7 368.17 393.07 366.53 392.98C364.03 392.84 356.13 387.65 356.13 387.65C356.13 387.65 353.27 386.67 353.09 383.64C353.02 382.5 351.33 381.13 350.53 381.02C348.9 380.8 348 381.84 347.77 383.47L347.51 385.37L343.74 384.81C343.74 384.81 339.89 382.91 340.09 384.78C340.2 385.85 340.88 390.61 341.32 394.38C341.42 395.26 341.52 396.09 341.6 396.82C341.79 398.44 341.91 399.56 341.91 399.56Z" fill="#263238"/>
<path d="M372.18 399.33L354.34 399.46C354.34 399.46 351.57 398.95 350.77 398.86C349.97 398.77 348.62 399.5 348.62 399.5L341.9 399.55C341.9 399.55 341.77 398.44 341.59 396.81L371.64 397.32C371.85 397.91 372.03 398.57 372.17 399.32L372.18 399.33Z" fill="#E0E0E0"/>
<path d="M360.05 389.57C359.97 389.49 359.84 389.48 359.74 389.55C359.3 389.85 358.93 390.26 358.68 390.79C358.55 391.07 358.95 391.33 359.08 391.05C359.3 390.59 359.62 390.22 360.01 389.96C360.14 389.87 360.16 389.69 360.05 389.59V389.57Z" fill="white"/>
<path d="M358.62 388.74C358.54 388.66 358.41 388.65 358.31 388.72C357.87 389.02 357.5 389.43 357.25 389.96C357.12 390.23 357.52 390.5 357.65 390.22C357.87 389.76 358.19 389.39 358.58 389.13C358.71 389.04 358.73 388.86 358.62 388.75V388.74Z" fill="white"/>
<path d="M357.15 387.97C357.07 387.89 356.94 387.88 356.84 387.95C356.4 388.25 356.03 388.66 355.78 389.19C355.65 389.47 356.05 389.73 356.18 389.45C356.4 388.99 356.72 388.62 357.11 388.36C357.24 388.27 357.26 388.09 357.15 387.98V387.97Z" fill="white"/>
<path d="M255.07 353.06L244.46 374.06L251.26 377.86L266.59 360.15L255.07 353.06Z" fill="#E9B376"/>
<path d="M237.12 379.78L241.73 384.67C241.73 384.67 243.19 385.16 243.66 385.81C244.13 386.46 245.65 388.83 245.65 388.83L257.88 401.81C258.33 401.19 258.69 400.61 258.98 400.06C259.34 399.39 259.59 398.76 259.74 398.18C260.29 396.14 259.73 394.6 258.68 393.34C257.08 391.41 255.51 382.1 255.51 382.1C255.51 382.1 254.28 379.34 256.38 377.15C257.17 376.33 257.03 374.15 256.56 373.49C255.61 372.14 254.24 372.19 252.89 373.13L251.32 374.23L249.16 371.08C249.16 371.08 247.94 366.97 246.7 368.39C245.99 369.2 242.97 372.94 240.5 375.82C239.92 376.49 239.38 377.13 238.9 377.69C237.84 378.93 237.11 379.78 237.11 379.78H237.12Z" fill="#263238"/>
<path d="M257.88 401.82L245.65 388.84C245.65 388.84 244.14 386.46 243.66 385.82C243.18 385.17 241.73 384.68 241.73 384.68L237.12 379.79C237.12 379.79 237.85 378.94 238.91 377.7L258.98 400.07C258.69 400.62 258.32 401.21 257.88 401.82Z" fill="#E0E0E0"/>
<path d="M256.78 386.28C256.78 386.16 256.7 386.07 256.59 386.04C256.07 385.92 255.52 385.93 254.97 386.11C254.68 386.2 254.76 386.67 255.05 386.58C255.54 386.43 256.03 386.41 256.48 386.52C256.63 386.55 256.78 386.45 256.78 386.29V386.28Z" fill="white"/>
<path d="M256.411 384.68C256.411 384.56 256.331 384.47 256.221 384.44C255.701 384.32 255.151 384.33 254.601 384.51C254.311 384.6 254.391 385.07 254.681 384.98C255.171 384.83 255.661 384.81 256.111 384.92C256.261 384.95 256.411 384.85 256.411 384.69V384.68Z" fill="white"/>
<path d="M255.98 383.08C255.98 382.96 255.9 382.87 255.79 382.84C255.27 382.72 254.72 382.73 254.17 382.91C253.88 383 253.96 383.47 254.25 383.38C254.74 383.23 255.23 383.21 255.68 383.32C255.83 383.35 255.98 383.25 255.98 383.09V383.08Z" fill="white"/>
<path d="M312.001 294.03C311.381 296.02 310.79 297.82 310.27 299.38C304.76 315.32 262.201 375.83 262.201 375.83L244.771 362.6C244.771 362.6 269.721 310.39 284.671 292.25C284.671 292.25 285.331 265.75 287.201 245.92C293.491 262.5 301.791 278.6 312.001 294.04V294.03Z" fill="#716298"/>
<path opacity="0.4" d="M312.001 294.03C311.381 296.02 310.79 297.82 310.27 299.38C304.76 315.32 262.201 375.83 262.201 375.83L244.771 362.6C244.771 362.6 269.721 310.39 284.671 292.25C284.671 292.25 285.331 265.75 287.201 245.92C293.491 262.5 301.791 278.6 312.001 294.04V294.03Z" fill="black"/>
<path d="M351.61 372.55L333.5 377.98C316.46 330.54 308.97 297.3 308.97 297.3C308.28 296.19 307.6 295.09 306.94 294.01C297.44 278.56 289.72 262.45 283.87 245.86C279.91 239.21 277.59 231.69 277.26 223.96C276.57 207.94 281.68 197.8 281.68 197.8L288.07 194.57H288.2L328.14 201.73C328.14 201.73 324.92 213.06 321.12 232.78L335.63 289.29L351.61 372.54V372.55Z" fill="#716298"/>
<path opacity="0.3" d="M351.61 372.55L333.5 377.98C316.46 330.54 308.97 297.3 308.97 297.3C308.28 296.19 307.6 295.09 306.94 294.01C297.44 278.56 289.72 262.45 283.87 245.86C279.91 239.21 277.59 231.69 277.26 223.96C276.57 207.94 281.68 197.8 281.68 197.8L288.07 194.57H288.2L328.14 201.73C328.14 201.73 324.92 213.06 321.12 232.78L335.63 289.29L351.61 372.54V372.55Z" fill="black"/>
<path opacity="0.3" d="M277.191 216.91V221.33C277.191 221.33 285.251 222.83 299.831 224.38C314.411 225.93 322.941 223.69 322.941 223.69L323.741 219.93L277.181 216.91H277.191Z" fill="black"/>
<path d="M276.25 131.39L272.37 216.12C290.72 222.13 310.63 222.74 330.3 218.95C330.3 218.95 331.51 214.77 329.78 212.76C328.62 211.41 326.91 163.61 326.09 136.73C326.04 134.44 328.87 124.87 326.91 119.68C325.54 116.06 319.66 116.01 318.06 115.94H295.58C294.08 115.92 282.21 116.93 279.94 118.27C276.06 120.56 276.15 124.55 276.26 131.39H276.25Z" fill="#263238"/>
<path opacity="0.3" d="M274.71 161.79L279.4 161.96L281.13 144.12L275.06 158.19L274.71 161.79Z" fill="black"/>
<path d="M295.081 65.91C295.581 65.5 296.291 65.38 296.921 65.54C297.551 65.7 298.101 66.11 298.491 66.63L294.481 67.66C294.311 67.03 294.571 66.33 295.081 65.92V65.91Z" fill="#716298"/>
<path d="M314.68 75.27L316.28 77.59C316.28 77.59 320.921 76.68 319.981 81.04C321.431 82 321.83 83.96 320.86 85.41C320.54 85.89 320.1 86.27 319.59 86.51C319.59 86.51 319.311 93.72 312.951 89.27C306.591 84.82 308.891 75.41 308.891 75.41L314.68 75.27Z" fill="#263238"/>
<path d="M294.17 115.71C294.17 115.71 295.06 109.31 291.31 98.2001C291.31 98.1901 291.89 97.9001 291.89 97.8901C291.37 96.3401 290.83 94.9001 290.33 93.6601C290.32 93.6201 290.32 93.6101 290.32 93.6101L306.11 102.45C305.91 106.06 307.5 112.95 308.4 115.85C308.4 115.85 310.57 121.08 303.51 121.62C298.35 122.01 294.17 115.7 294.17 115.7V115.71Z" fill="#E9B376"/>
<path opacity="0.2" d="M306.6 107.5L297.66 105.89C298.58 108.61 301.16 111.77 307.33 111.76C307.33 111.76 306.58 108.71 306.6 107.5Z" fill="black"/>
<path d="M315.591 75.42C317.561 78.9 318.541 86.7 312.801 85.31C307.061 83.93 312.211 69.44 315.591 75.42Z" fill="#263238"/>
<path d="M285.591 85.26L285.331 88.72C285.331 88.72 279.661 88.99 282.501 94.38C282.501 94.38 279.111 100.69 285.751 100.59C285.751 100.59 286.471 106.19 291.831 102.49C297.191 98.79 297.291 88.71 297.291 88.71L294.901 78.54L287.851 82.72L285.591 85.26Z" fill="#263238"/>
<path d="M289.871 86.15C291.331 95.86 291.961 101.36 297.341 105.89C305.431 112.7 316.831 107.3 318.301 97.32C319.621 88.34 317.011 73.98 307.101 71.03C297.341 68.13 288.411 76.44 289.871 86.15Z" fill="#E9B376"/>
<path d="M286.74 94.6301C287.74 97.0701 289.78 98.8201 291.8 99.6101C294.84 100.8 296.71 98.1501 296.17 95.1001C295.68 92.3501 293.5 88.4301 290.31 88.5401C287.16 88.6501 285.6 91.8401 286.74 94.6401V94.6301Z" fill="#E9B376"/>
<path d="M304.09 87.9901C304.18 88.9901 304.78 89.7501 305.43 89.6801C306.08 89.6201 306.54 88.7501 306.45 87.7601C306.36 86.7601 305.76 86.0001 305.11 86.0701C304.46 86.1301 304 87.0001 304.09 87.9901Z" fill="#263238"/>
<path d="M313.9 87.7401C313.99 88.7401 314.59 89.5001 315.24 89.4301C315.89 89.3701 316.35 88.5001 316.26 87.5101C316.17 86.5101 315.57 85.7501 314.92 85.8201C314.27 85.8801 313.81 86.7501 313.9 87.7401Z" fill="#263238"/>
<path d="M310.67 86.79C310.67 86.79 314.27 91.47 315.46 93.4C314.18 94.78 311.74 94.41 311.74 94.41L310.67 86.78V86.79Z" fill="#D58745"/>
<path d="M301.23 83.24C301.39 83.29 301.56 83.25 301.69 83.13C303.23 81.7 304.91 82.08 304.93 82.08C305.18 82.14 305.44 81.99 305.5 81.73C305.56 81.48 305.41 81.23 305.16 81.17C305.07 81.15 302.96 80.67 301.05 82.45C300.86 82.63 300.85 82.92 301.03 83.11C301.09 83.17 301.16 83.21 301.23 83.24Z" fill="#263238"/>
<path opacity="0.2" d="M293.441 94.5101C293.321 94.5101 293.221 94.4301 293.201 94.3101C293.041 93.5201 292.671 92.7801 292.141 92.1801C291.791 91.7901 291.231 91.3001 290.521 91.1901C289.881 91.0901 289.221 91.3701 288.961 91.8601C288.891 91.9801 288.741 92.0201 288.621 91.9601C288.501 91.8901 288.461 91.7401 288.521 91.6201C288.891 90.9501 289.751 90.5701 290.601 90.7001C291.471 90.8301 292.121 91.4001 292.521 91.8601C293.111 92.5301 293.521 93.3501 293.701 94.2201C293.731 94.3601 293.641 94.4901 293.501 94.5101C293.481 94.5101 293.471 94.5101 293.451 94.5101H293.441Z" fill="black"/>
<path d="M302.18 94.97L310.79 97.58C310.32 98.53 309.84 99.49 309.14 100.28C308.44 101.07 307.53 101.43 306.47 101.49C304.96 101.58 303.51 100.77 302.83 99.41C302.16 98.05 302.09 96.48 302.18 94.97Z" fill="black"/>
<path d="M310.1 97.37C310.1 97.37 309.55 98.46 309.03 98.63C308.51 98.8 302.15 96.55 302.15 96.55L302.18 94.97L310.1 97.37Z" fill="white"/>
<path d="M307.551 101.3C307.551 101.3 307.071 99.8199 305.301 99.1699C303.521 98.5299 302.621 98.9199 302.621 98.9199C302.621 98.9199 303.201 100.68 304.871 101.24C306.541 101.8 307.551 101.3 307.551 101.3Z" fill="#DE5753"/>
<path d="M289.841 89.6299C289.841 89.6299 290.051 94.6999 293.391 94.0599C296.731 93.4199 293.511 87.6799 294.851 85.7199C296.561 83.5899 297.091 80.7399 296.251 78.1399C295.131 75.2599 288.701 83.1599 288.701 83.1599L289.841 89.6299Z" fill="#263238"/>
<path d="M285.531 89.53C294.191 81.7 305.521 77.49 317.181 77.76C317.181 77.76 310.101 60.67 295.211 67.09C280.751 73.33 285.531 89.53 285.531 89.53Z" fill="#716298"/>
<path d="M317.991 82.6401C318.081 82.6101 318.151 82.5601 318.211 82.4901C318.371 82.2901 318.351 81.9901 318.151 81.8301C316.151 80.1801 314.101 80.8401 314.001 80.8501C313.751 80.9301 313.621 81.1901 313.691 81.4401C313.771 81.6901 314.031 81.8201 314.271 81.7501C314.351 81.7201 315.951 81.2401 317.551 82.5601C317.681 82.6601 317.841 82.6901 317.981 82.6401H317.991Z" fill="#263238"/>
<path d="M317.181 77.7601C317.181 77.7601 329.611 68.3701 317.001 65.9601C304.391 63.5501 293.931 83.5501 293.931 83.5501C301.051 79.6501 309.061 77.6501 317.181 77.7601Z" fill="#716298"/>
<path d="M308.15 145.28L305.97 123.51L305.78 121.65L305.05 121.72C305.26 122.6 304.74 123.48 303.88 123.73L302.66 123.87C300.88 124.06 299.63 126.21 299.86 128.67C300.09 131.13 301.75 133 303.53 132.75L304.77 132.61C305.53 132.53 306.23 133.3 306.32 134.35C306.42 135.4 305.9 136.31 305.15 136.39L303.91 136.53C302.11 136.72 300.86 138.9 301.09 141.39C301.32 143.88 302.99 145.77 304.79 145.58L306.04 145.44C306.8 145.36 307.5 146.15 307.6 147.21L308.33 147.13L308.14 145.28H308.15Z" fill="#716298"/>
<path d="M302.291 141.34C302.471 143.12 303.561 144.54 304.671 144.42L302.291 141.34Z" fill="white"/>
<path d="M301.03 128.56C301.21 130.32 302.3 131.7 303.41 131.58L301.03 128.56Z" fill="white"/>
<path d="M239.031 185.22C238.891 185.22 238.791 185.1 238.791 184.96C239.081 178.46 239.561 171.89 240.211 165.42C240.221 165.28 240.361 165.18 240.481 165.2C240.621 165.21 240.721 165.34 240.701 165.47C240.051 171.93 239.571 178.49 239.281 184.98C239.281 185.11 239.161 185.22 239.031 185.22Z" fill="#716298"/>
<path d="M452.16 401.82H447.16V319.8C447.16 300.54 431.49 284.88 412.23 284.88C392.97 284.88 377.3 300.55 377.3 319.8V401.82H372.3V319.8C372.3 297.79 390.21 279.88 412.23 279.88C434.25 279.88 452.16 297.79 452.16 319.8V401.82Z" fill="#263238"/>
<path opacity="0.3" d="M452.16 401.82H447.16V319.8C447.16 300.54 431.49 284.88 412.23 284.88C392.97 284.88 377.3 300.55 377.3 319.8V401.82H372.3V319.8C372.3 297.79 390.21 279.88 412.23 279.88C434.25 279.88 452.16 297.79 452.16 319.8V401.82Z" fill="white"/>
<path d="M352.37 182.35L361.11 185.61L367.08 185.78C367.08 185.78 371.47 187.54 371.86 189.17C372.25 190.8 371.23 194.32 371.23 194.32C371.23 194.32 370.8 197.5 367.77 197.06C367.77 197.06 367.63 200.08 364.15 199.66C364.15 199.66 365.18 202.01 361.82 201.14C358.46 200.27 356.9 198.13 355.75 196.39C354.6 194.65 353.31 193 353.31 193L341.83 187.43L352.37 182.34V182.35Z" fill="#E9B376"/>
<path d="M365.41 225.22C364.3 225.22 363.25 224.53 362.86 223.42C362.35 222.01 363.09 220.46 364.5 219.95L369.65 218.11C372.44 217.11 374.65 215.07 375.87 212.38C377.09 209.68 377.17 206.68 376.09 203.92C374.01 198.63 368.13 195.83 362.71 197.54L330.82 207.64C329.39 208.09 327.87 207.3 327.41 205.87C326.96 204.44 327.75 202.92 329.18 202.47L361.07 192.37C369.2 189.8 378.01 194 381.13 201.93C382.76 206.07 382.64 210.57 380.81 214.62C378.97 218.67 375.66 221.72 371.47 223.22L366.32 225.06C366.02 225.17 365.71 225.22 365.41 225.22Z" fill="#716298"/>
<g opacity="0.2">
<path d="M365.41 225.22C364.3 225.22 363.25 224.53 362.86 223.42C362.35 222.01 363.09 220.46 364.5 219.95L369.65 218.11C372.44 217.11 374.65 215.07 375.87 212.38C377.09 209.68 377.17 206.68 376.09 203.92C374.01 198.63 368.13 195.83 362.71 197.54L330.82 207.64C329.39 208.09 327.87 207.3 327.41 205.87C326.96 204.44 327.75 202.92 329.18 202.47L361.07 192.37C369.2 189.8 378.01 194 381.13 201.93C382.76 206.07 382.64 210.57 380.81 214.62C378.97 218.67 375.66 221.72 371.47 223.22L366.32 225.06C366.02 225.17 365.71 225.22 365.41 225.22Z" fill="black"/>
</g>
<path d="M364.08 188.27L363.74 195.11C363.72 195.56 363.7 196.02 363.88 196.43C364.23 197.2 365.23 197.5 366.05 197.28C366.87 197.06 367.52 196.45 368.05 195.79C369.44 194.08 370.28 191.93 370.42 189.74L364.07 188.27H364.08Z" fill="#E9B376"/>
<path d="M333.56 389.74L332.68 389.27L361.4 335.46H298.24V334.46H363.06L333.56 389.74Z" fill="#263238"/>
<path d="M420.62 345.77L361.44 335.02L392.27 283.1L393.13 283.61L363.04 334.3L420.79 344.78L420.62 345.77Z" fill="#263238"/>
<path d="M382.86 389.68L361.79 334.9C352.18 321.81 327.15 287.8 326.01 286.76L326.6 285.95C327.55 286.58 356.79 326.39 362.64 334.36L362.7 334.48L383.79 389.32L382.86 389.68Z" fill="#263238"/>
<path d="M133.97 389.74L133.08 389.27L161.8 335.46H98.6401V334.46H163.47L133.97 389.74Z" fill="#263238"/>
<path d="M221.02 345.77L161.85 335.02L192.67 283.1L193.53 283.61L163.44 334.3L221.2 344.78L221.02 345.77Z" fill="#263238"/>
<path d="M183.27 389.68L162.2 334.9C152.59 321.81 127.56 287.8 126.42 286.76L127.01 285.95C127.96 286.58 157.2 326.39 163.05 334.36L163.11 334.48L184.2 389.32L183.27 389.68Z" fill="#263238"/>
<path d="M161.39 276.5C193.68 276.5 219.86 302.68 219.86 334.97C219.86 367.26 193.68 393.44 161.39 393.44C129.1 393.44 102.92 367.26 102.92 334.97C102.95 302.69 129.11 276.54 161.39 276.5ZM161.39 268.11C124.47 268.11 94.53 298.03 94.52 334.96C94.52 371.88 124.44 401.82 161.37 401.83C198.29 401.83 228.23 371.91 228.24 334.98C228.24 298.04 198.31 268.11 161.38 268.11H161.39Z" fill="#263238"/>
<path d="M161.39 278.99C192.3 278.99 217.36 304.04 217.37 334.95C217.37 365.86 192.32 390.92 161.41 390.93C130.5 390.93 105.44 365.88 105.43 334.97C105.46 304.06 130.49 279.03 161.39 278.99ZM161.39 270.96C126.05 270.96 97.3999 299.61 97.3999 334.95C97.3999 370.29 126.05 398.94 161.39 398.94C196.73 398.94 225.38 370.29 225.38 334.95C225.38 299.61 196.73 270.96 161.39 270.96Z" fill="#716298"/>
<path d="M362.23 276.5C394.52 276.5 420.7 302.67 420.71 334.95C420.72 367.23 394.54 393.42 362.26 393.43C329.97 393.43 303.79 367.26 303.78 334.98C303.81 302.69 329.97 276.54 362.25 276.5M362.25 268.11C325.33 268.11 295.39 298.04 295.39 334.97C295.39 371.9 325.32 401.83 362.25 401.83C399.18 401.83 429.11 371.9 429.11 334.97C429.11 298.04 399.18 268.11 362.25 268.11Z" fill="#263238"/>
<path d="M362.23 278.99C393.14 278.99 418.2 304.04 418.21 334.95C418.21 365.86 393.16 390.92 362.25 390.93C331.34 390.93 306.28 365.88 306.27 334.97C306.3 304.06 331.33 279.03 362.23 278.99ZM362.23 270.96C326.89 270.96 298.24 299.61 298.24 334.95C298.24 370.29 326.89 398.94 362.23 398.94C397.57 398.94 426.22 370.29 426.22 334.95C426.22 299.61 397.57 270.96 362.23 270.96Z" fill="#716298"/>
<path d="M366.751 344.246C371.865 341.743 373.982 335.567 371.478 330.453C368.975 325.339 362.8 323.222 357.686 325.725C352.571 328.229 350.455 334.404 352.958 339.518C355.461 344.632 361.636 346.749 366.751 344.246Z" fill="#263238"/>
<path d="M161.38 327.79C162.04 327.79 162.69 327.88 163.32 328.06H163.55L253.95 346.08C260.59 347.8 264.57 354.58 262.85 361.22C261.43 366.71 256.47 370.53 250.8 370.52C249.79 370.52 248.78 370.4 247.8 370.15L159.56 341.82H159.44C155.63 340.74 153.41 336.77 154.5 332.96C155.37 329.89 158.17 327.76 161.36 327.74M161.36 324.59C155.66 324.51 150.97 329.07 150.9 334.77C150.84 339.52 154.02 343.7 158.61 344.9L246.94 373.23C248.2 373.55 249.5 373.71 250.8 373.71C259.4 373.71 266.36 366.72 266.35 358.12C266.35 351.01 261.52 344.81 254.63 343.05L164.15 324.96C163.25 324.7 162.31 324.57 161.37 324.57H161.36V324.59Z" fill="#263238"/>
<path opacity="0.3" d="M161.38 327.79C162.04 327.79 162.69 327.88 163.32 328.06H163.55L253.95 346.08C260.59 347.8 264.57 354.58 262.85 361.22C261.43 366.71 256.47 370.53 250.8 370.52C249.79 370.52 248.78 370.4 247.8 370.15L159.56 341.82H159.44C155.63 340.74 153.41 336.77 154.5 332.96C155.37 329.89 158.17 327.76 161.36 327.74M161.36 324.59C155.66 324.51 150.97 329.07 150.9 334.77C150.84 339.52 154.02 343.7 158.61 344.9L246.94 373.23C248.2 373.55 249.5 373.71 250.8 373.71C259.4 373.71 266.36 366.72 266.35 358.12C266.35 351.01 261.52 344.81 254.63 343.05L164.15 324.96C163.25 324.7 162.31 324.57 161.37 324.57H161.36V324.59Z" fill="white"/>
<path d="M250.81 361.3C250.66 361.31 250.51 361.31 250.36 361.3C249.27 361.14 248.34 360.43 247.91 359.41L191.9 226.69C191.23 225.09 191.98 223.24 193.58 222.57C195.18 221.9 197.03 222.65 197.7 224.25L251.68 352.11L337.7 246.85C338.84 245.54 340.83 245.4 342.14 246.54C343.4 247.63 343.59 249.52 342.57 250.84L253.28 360.15C252.68 360.89 251.77 361.31 250.81 361.3Z" fill="#263238"/>
<path opacity="0.6" d="M250.81 361.3C250.66 361.31 250.51 361.31 250.36 361.3C249.27 361.14 248.34 360.43 247.91 359.41L191.9 226.69C191.23 225.09 191.98 223.24 193.58 222.57C195.18 221.9 197.03 222.65 197.7 224.25L251.68 352.11L337.7 246.85C338.84 245.54 340.83 245.4 342.14 246.54C343.4 247.63 343.59 249.52 342.57 250.84L253.28 360.15C252.68 360.89 251.77 361.31 250.81 361.3Z" fill="white"/>
<path opacity="0.3" d="M191.6 226.05L192.65 228.46L198.97 227.26L198.04 225.05L191.6 226.05Z" fill="black"/>
<path d="M161.39 337.06C160.23 337.06 159.29 336.13 159.29 334.97C159.29 334.66 159.36 334.35 159.49 334.06L201.59 245.18C202.03 244.11 203.26 243.6 204.33 244.04C205.4 244.48 205.91 245.71 205.47 246.78C205.44 246.85 205.41 246.91 205.38 246.98L163.29 335.86C162.94 336.6 162.2 337.07 161.39 337.07V337.06Z" fill="#263238"/>
<path opacity="0.6" d="M161.39 337.06C160.23 337.06 159.29 336.13 159.29 334.97C159.29 334.66 159.36 334.35 159.49 334.06L201.59 245.18C202.03 244.11 203.26 243.6 204.33 244.04C205.4 244.48 205.91 245.71 205.47 246.78C205.44 246.85 205.41 246.91 205.38 246.98L163.29 335.86C162.94 336.6 162.2 337.07 161.39 337.07V337.06Z" fill="white"/>
<path d="M362.23 338.11C360.79 338.11 359.53 337.13 359.18 335.74L333.92 237.44L203.77 249.21C202.03 249.37 200.5 248.08 200.34 246.35C200.18 244.61 201.47 243.08 203.2 242.92L336.01 230.91C337.55 230.77 338.96 231.76 339.35 233.26L365.28 334.15C365.71 335.83 364.7 337.55 363.01 337.98C362.76 338.06 362.49 338.11 362.22 338.12L362.23 338.11Z" fill="#263238"/>
<path opacity="0.6" d="M362.23 338.11C360.79 338.11 359.53 337.13 359.18 335.74L333.92 237.44L203.77 249.21C202.03 249.37 200.5 248.08 200.34 246.35C200.18 244.61 201.47 243.08 203.2 242.92L336.01 230.91C337.55 230.77 338.96 231.76 339.35 233.26L365.28 334.15C365.71 335.83 364.7 337.55 363.01 337.98C362.76 338.06 362.49 338.11 362.22 338.12L362.23 338.11Z" fill="white"/>
<path d="M336.87 237.79C335.31 238.02 333.81 236.95 333.35 235.29L325.74 207.54C325.23 205.7 326.17 203.8 327.84 203.29C329.51 202.78 331.27 203.86 331.78 205.7L339.46 233.46C339.97 235.3 339.02 237.2 337.36 237.71C337.21 237.76 337.05 237.79 336.89 237.81L336.87 237.79Z" fill="#263238"/>
<path opacity="0.6" d="M336.87 237.79C335.31 238.02 333.81 236.95 333.35 235.29L325.74 207.54C325.23 205.7 326.17 203.8 327.84 203.29C329.51 202.78 331.27 203.86 331.78 205.7L339.46 233.46C339.97 235.3 339.02 237.2 337.36 237.71C337.21 237.76 337.05 237.79 336.89 237.81L336.87 237.79Z" fill="white"/>
<path d="M347.97 200.01C348.21 201.36 347.38 202.68 346.02 203.11L323.37 210.24C321.87 210.72 320.27 209.94 319.79 208.51C319.31 207.08 320.15 205.53 321.65 205.05L344.3 197.86C345.8 197.39 347.4 198.16 347.87 199.6C347.91 199.73 347.95 199.87 347.97 200.01Z" fill="#263238"/>
<path opacity="0.4" d="M347.97 200.01C348.21 201.36 347.38 202.68 346.02 203.11L323.37 210.24C321.87 210.72 320.27 209.94 319.79 208.51C319.31 207.08 320.15 205.53 321.65 205.05L344.3 197.86C345.8 197.39 347.4 198.16 347.87 199.6C347.91 199.73 347.95 199.87 347.97 200.01Z" fill="white"/>
<path d="M173.21 225.61C177.91 230.52 202.55 225.03 209.82 223.54C215.6 222.35 219.88 222.2 217.48 216.73C215.51 212.25 201.48 214.07 192.02 214.17C189.6 214.2 187.18 213.97 184.85 213.31C175 210.54 164.5 214.45 173.22 225.61H173.21Z" fill="#716298"/>
<path d="M241.53 393.7C240.37 393.7 239.43 392.76 239.43 391.6C239.43 391.41 239.46 391.22 239.51 391.04L258.06 324.14C258.42 323.04 259.61 322.44 260.71 322.8C261.74 323.14 262.35 324.21 262.1 325.26L243.55 392.12C243.31 393.04 242.49 393.69 241.54 393.69L241.53 393.7Z" fill="#263238"/>
<path d="M265.28 326.81H246.74C245.58 326.81 244.64 325.87 244.64 324.71C244.64 323.55 245.58 322.61 246.74 322.61H265.28C266.44 322.61 267.38 323.55 267.38 324.71C267.38 325.87 266.44 326.81 265.28 326.81Z" fill="#263238"/>
<path d="M254.86 393.7H236.33C235.17 393.7 234.23 392.76 234.23 391.6C234.23 390.44 235.17 389.5 236.33 389.5H254.86C256.02 389.5 256.96 390.44 256.96 391.6C256.96 392.76 256.02 393.7 254.86 393.7Z" fill="#263238"/>
<path d="M161.39 324.65C167.09 324.65 171.7 329.27 171.7 334.96C171.7 340.65 167.08 345.27 161.39 345.27C155.7 345.27 151.08 340.65 151.08 334.96C151.08 329.27 155.7 324.65 161.39 324.65Z" fill="#263238"/>
<path d="M250.81 342.59C242.21 342.59 235.24 349.56 235.24 358.16C235.24 366.76 242.21 373.73 250.81 373.73C259.41 373.73 266.38 366.76 266.38 358.16C266.38 349.57 259.43 342.6 250.83 342.59H250.81Z" fill="#263238"/>
<path opacity="0.4" d="M250.86 348.76C245.67 348.76 241.46 352.97 241.46 358.16C241.46 363.35 245.67 367.56 250.86 367.56C256.05 367.56 260.26 363.35 260.26 358.16C260.26 352.97 256.06 348.77 250.87 348.76H250.86Z" fill="white"/>
<path opacity="0.3" d="M173.21 225.61C177.91 230.52 202.55 225.03 209.82 223.54C215.6 222.35 219.88 222.2 217.48 216.73C215.51 212.25 201.48 214.07 192.02 214.17C189.6 214.2 187.18 213.97 184.85 213.31C175 210.54 164.5 214.45 173.22 225.61H173.21Z" fill="black"/>
<path d="M334.57 235.33C333.39 235.33 332.31 234.56 331.96 233.37C331.55 231.93 332.38 230.43 333.82 230.01L339.07 228.5C341.92 227.68 344.25 225.79 345.65 223.17C347.05 220.55 347.31 217.56 346.41 214.74C344.67 209.33 338.98 206.16 333.46 207.52L299.38 216.55C297.93 216.93 296.45 216.07 296.06 214.62C295.68 213.17 296.54 211.69 297.99 211.3L332.11 202.26C340.43 200.2 348.96 204.95 351.57 213.07C352.93 217.3 352.53 221.79 350.44 225.71C348.35 229.63 344.85 232.47 340.58 233.7L335.33 235.21C335.08 235.28 334.83 235.32 334.58 235.32L334.57 235.33Z" fill="#716298"/>
<g opacity="0.2">
<path d="M334.57 235.33C333.39 235.33 332.31 234.56 331.96 233.37C331.55 231.93 332.38 230.43 333.82 230.01L339.07 228.5C341.92 227.68 344.25 225.79 345.65 223.17C347.05 220.55 347.31 217.56 346.41 214.74C344.67 209.33 338.98 206.16 333.46 207.52L299.38 216.55C297.93 216.93 296.45 216.07 296.06 214.62C295.68 213.17 296.54 211.69 297.99 211.3L332.11 202.26C340.43 200.2 348.96 204.95 351.57 213.07C352.93 217.3 352.53 221.79 350.44 225.71C348.35 229.63 344.85 232.47 340.58 233.7L335.33 235.21C335.08 235.28 334.83 235.32 334.58 235.32L334.57 235.33Z" fill="black"/>
</g>
<path d="M90.5101 325.8C90.5101 325.8 90.4901 325.8 90.4701 325.8C90.3301 325.78 90.2401 325.65 90.2601 325.52C92.3701 310.51 99.5301 296.17 109.43 287.16C109.53 287.07 109.69 287.07 109.78 287.18C109.87 287.28 109.87 287.44 109.76 287.53C99.9501 296.46 92.8501 310.69 90.7501 325.59C90.7301 325.71 90.6301 325.8 90.5001 325.8H90.5101Z" fill="#716298"/>
<path d="M111.09 286.42C111.02 286.42 110.95 286.39 110.9 286.34C110.81 286.24 110.82 286.08 110.92 285.99L112.14 284.91C112.24 284.82 112.4 284.83 112.49 284.93C112.58 285.03 112.57 285.19 112.47 285.28L111.25 286.36C111.25 286.36 111.14 286.42 111.08 286.42H111.09Z" fill="#716298"/>
<path d="M469.1 401.82H464.1V319.8C464.1 300.54 448.43 284.88 429.17 284.88C409.91 284.88 394.25 300.55 394.25 319.8V401.82H389.25V319.8C389.25 297.79 407.16 279.88 429.17 279.88C451.18 279.88 469.1 297.79 469.1 319.8V401.82Z" fill="#263238"/>
<path opacity="0.4" d="M469.1 401.82H464.1V319.8C464.1 300.54 448.43 284.88 429.17 284.88C409.91 284.88 394.25 300.55 394.25 319.8V401.82H389.25V319.8C389.25 297.79 407.16 279.88 429.17 279.88C451.18 279.88 469.1 297.79 469.1 319.8V401.82Z" fill="white"/>
<path d="M306.52 196.39L317.54 205.27L323.14 204.91C323.14 204.91 327.85 209.1 327.96 210.85C328.07 212.6 326.4 216.03 326.4 216.03C326.4 216.03 325.39 219.22 322.35 218.23C322.35 218.23 321.67 221.31 318.16 220.26C318.16 220.26 318.8 222.86 315.5 221.36C312.21 219.86 310.98 217.39 310.11 215.39C309.24 213.39 308.2 211.47 308.2 211.47L297.69 203.17L306.52 196.38V196.39Z" fill="#E9B376"/>
<path d="M291.68 117.2C291.84 117.21 284 118.45 282.16 120.89C277.78 126.69 272.4 135.97 266.42 151.42L289.02 160.4L294.78 134.44C293.9 124.37 291.68 117.21 291.68 117.21V117.2Z" fill="#263238"/>
<path d="M271.67 153.5C271.67 153.5 264.63 179.91 267.68 184.2C270.6 188.3 309.17 211.63 309.17 211.63L316.48 204.23L283.38 178.2L287.25 159.7L271.67 153.51V153.5Z" fill="#E9B376"/>
<path d="M287.49 118.19C287.49 118.19 292.54 116.77 293.77 127.7C296.53 152.18 285.56 171.02 285.56 171.02L283.38 178.18L285.56 180.06C285.56 180.06 290.88 176.12 296.07 162.52C301.26 148.92 303.22 121.3 294.19 116.33C294.19 116.33 289.66 114.99 287.5 118.18L287.49 118.19Z" fill="#716298"/>
<path opacity="0.3" d="M287.49 118.19C287.49 118.19 292.54 116.77 293.77 127.7C296.53 152.18 285.56 171.02 285.56 171.02L283.38 178.18L285.56 180.06C285.56 180.06 290.88 176.12 296.07 162.52C301.26 148.92 303.22 121.3 294.19 116.33C294.19 116.33 289.66 114.99 287.5 118.18L287.49 118.19Z" fill="white"/>
</g>
<defs>
<clipPath id="clip0_74_4422">
<rect width="750" height="412" fill="white"/>
</clipPath>
</defs>
</svg>
