<svg width="750" height="412" viewBox="0 0 750 412" fill="none" xmlns="http://www.w3.org/2000/svg">
<g clip-path="url(#clip0_183_8684)">
<mask id="mask0_183_8684" style="mask-type:luminance" maskUnits="userSpaceOnUse" x="0" y="0" width="750" height="412">
<path d="M750 0H0V412H750V0Z" fill="white"/>
</mask>
<g mask="url(#mask0_183_8684)">
<path d="M673.729 290.58H492.979C489.749 290.58 487.119 287.95 487.119 284.72V21.4498C487.119 18.2198 489.749 15.5898 492.979 15.5898H673.729C676.959 15.5898 679.589 18.2198 679.589 21.4498V284.72C679.589 287.95 676.959 290.58 673.729 290.58ZM492.989 15.8298C489.899 15.8298 487.379 18.3498 487.379 21.4398V284.72C487.379 287.81 489.899 290.33 492.989 290.33H673.739C676.829 290.33 679.349 287.81 679.349 284.72V21.4498C679.349 18.3598 676.829 15.8398 673.739 15.8398H492.989V15.8298Z" fill="#E0E0E0"/>
<path d="M465.309 290.58H284.559C281.329 290.58 278.699 287.95 278.699 284.72V21.4498C278.699 18.2198 281.329 15.5898 284.559 15.5898H465.309C468.539 15.5898 471.169 18.2198 471.169 21.4498V284.72C471.169 287.95 468.539 290.58 465.309 290.58ZM284.559 15.8298C281.469 15.8298 278.949 18.3498 278.949 21.4398V284.72C278.949 287.81 281.469 290.33 284.559 290.33H465.309C468.399 290.33 470.919 287.81 470.919 284.72V21.4498C470.919 18.3598 468.399 15.8398 465.309 15.8398H284.559V15.8298Z" fill="#E0E0E0"/>
<path d="M257.01 290.58H76.2701C73.0401 290.58 70.4102 287.95 70.4102 284.72V21.4498C70.4102 18.2198 73.0401 15.5898 76.2701 15.5898H257.02C260.25 15.5898 262.88 18.2198 262.88 21.4498V284.72C262.88 287.95 260.25 290.58 257.02 290.58H257.01ZM76.2701 15.8298C73.1801 15.8298 70.6602 18.3498 70.6602 21.4398V284.72C70.6602 287.81 73.1801 290.33 76.2701 290.33H257.02C260.11 290.33 262.63 287.81 262.63 284.72V21.4498C262.63 18.3598 260.11 15.8398 257.02 15.8398H76.2701V15.8298Z" fill="#E0E0E0"/>
<path d="M750 351.65H0V351.77H750V351.65Z" fill="#E0E0E0"/>
<path d="M619.941 379.45C620.251 375.71 619.741 370.87 615.391 369.44C607.991 367 603.621 361.28 603.861 354.81C604.101 348.34 596.331 342.04 590.501 348.1C584.671 354.17 585.441 343.43 577.661 340.82C569.881 338.21 563.281 344.55 565.421 350.32C567.561 356.1 559.881 359.72 550.691 354.8C541.501 349.88 531.381 358.83 533.331 365.82C535.281 372.81 533.681 373.66 527.871 371.27C523.181 369.37 515.491 373.34 514.631 379.44H619.961L619.941 379.45Z" fill="#EBEBEB"/>
<path d="M120.49 379.45C120.84 376.48 120.69 372.17 117.03 370.96C111.29 369.06 107.88 364.62 108.07 359.6C108.26 354.58 102.23 349.68 97.7 354.37C93.18 359.06 93.78 350.75 87.74 348.72C81.7 346.69 76.57 351.61 78.24 356.09C79.9 360.57 73.93 363.39 66.8 359.57C59.67 355.75 51.82 362.72 53.32 368.16C54.82 373.6 53.59 374.19 49.08 372.38C45.25 370.85 38.9 374.3 38.75 379.44H120.49V379.45Z" fill="#EBEBEB"/>
<path d="M100.02 379.45H234.29C236.19 373.15 231.3 365.59 225.97 364.52C219.43 363.21 212.9 351.71 212.56 344.39C212.22 337.07 200.48 314.54 182.18 328.45C163.88 342.36 169.45 330.5 156.2 326.59C142.95 322.68 134.6 333.92 140.42 342.36C140.42 342.36 127.11 339.03 121.63 351.45C116.15 363.87 121.63 371.58 121.63 371.58C121.63 371.58 104.82 371.1 100.02 379.45Z" fill="#EBEBEB"/>
<path d="M324.859 75.7599C324.859 71.0099 328.709 67.1499 333.459 67.1399C334.299 67.1399 335.129 67.2699 335.939 67.5099C335.799 66.6399 335.739 65.7599 335.739 64.8699C335.739 54.8099 343.899 46.6499 353.959 46.6499C355.079 46.6499 356.199 46.7499 357.309 46.9499C361.879 39.4299 371.669 37.0399 379.189 41.6099C383.879 44.4599 386.769 49.5199 386.849 54.9999H387.119C395.229 54.9999 401.799 61.5699 401.799 69.6799C401.799 77.7899 395.229 84.3599 387.119 84.3599H333.199C328.549 84.2199 324.849 80.4099 324.859 75.7599Z" fill="#F5F5F5"/>
<path d="M72.9609 16.64C72.9609 14.47 74.7009 12.71 76.8709 12.71C77.2609 12.71 77.6509 12.77 78.0209 12.88C77.9609 12.48 77.9309 12.08 77.9309 11.68C77.9309 7.08996 81.6509 3.35996 86.2509 3.35996C86.7609 3.35996 87.2809 3.40996 87.7809 3.49996C89.8709 0.0699637 94.3409 -1.02004 97.7709 1.06996C99.9109 2.36996 101.231 4.67996 101.261 7.17996H101.381C105.081 7.17996 108.071 10.18 108.071 13.88C108.071 17.57 105.071 20.57 101.381 20.57H76.8309C74.6909 20.53 72.9709 18.79 72.9709 16.65L72.9609 16.64Z" fill="#F0F0F0"/>
<path d="M77.2207 196.54C77.2207 193.72 79.4907 191.43 82.3107 191.42C82.8207 191.42 83.3207 191.49 83.8107 191.64C83.7407 191.12 83.7007 190.6 83.6907 190.07C83.6907 184.09 88.5307 179.25 94.5107 179.25C95.1807 179.25 95.8407 179.31 96.5007 179.44C99.2107 174.98 105.031 173.56 109.501 176.27C112.281 177.96 114.001 180.96 114.041 184.22H114.191C119.001 184.22 122.901 188.13 122.891 192.94C122.891 197.75 118.991 201.64 114.191 201.64H82.2407C79.4507 201.59 77.2207 199.32 77.2207 196.54Z" fill="#F0F0F0"/>
<path d="M609.99 204.94C609.99 202.03 612.34 199.66 615.25 199.65C615.77 199.65 616.29 199.72 616.8 199.88C616.72 199.34 616.68 198.8 616.68 198.26C616.68 192.08 621.69 187.08 627.86 187.08C628.55 187.08 629.24 187.15 629.92 187.27C632.73 182.66 638.74 181.19 643.35 184C646.22 185.75 648 188.85 648.05 192.21H648.21C653.18 192.21 657.21 196.25 657.21 201.22C657.21 206.19 653.18 210.21 648.21 210.22H615.19C612.31 210.17 610 207.82 610 204.94H609.99Z" fill="#F0F0F0"/>
<path d="M435.16 42.17C435.16 39.77 437.11 37.82 439.51 37.82C439.93 37.82 440.35 37.88 440.76 37.99C440.7 37.55 440.67 37.1 440.67 36.66C440.67 31.57 444.8 27.44 449.89 27.44C450.46 27.44 451.03 27.49 451.59 27.6C453.89 23.8 458.83 22.58 462.63 24.87C465.01 26.31 466.48 28.88 466.51 31.67H466.65C470.75 31.67 474.07 35 474.07 39.09C474.07 43.18 470.75 46.5 466.65 46.51H439.39C437.03 46.45 435.16 44.52 435.16 42.16V42.17Z" fill="#F5F5F5"/>
<path d="M390.051 111.82C390.051 109.57 391.871 107.75 394.121 107.75C394.511 107.75 394.911 107.8 395.291 107.91C395.241 107.5 395.211 107.08 395.211 106.66C395.211 101.89 399.071 98.03 403.841 98.03C404.371 98.03 404.901 98.08 405.431 98.18C407.581 94.62 412.211 93.48 415.771 95.63C418.001 96.98 419.381 99.39 419.411 101.99H419.551C423.391 101.99 426.501 105.1 426.491 108.94C426.491 112.77 423.381 115.88 419.551 115.88H394.031C391.821 115.82 390.071 114.02 390.071 111.81L390.051 111.82Z" fill="#E6E6E6"/>
<path d="M290.449 87.15C289.079 85.98 287.369 84.43 287.959 82.79C288.439 81.46 290.129 81.0101 291.089 79.9601C293.049 77.8201 291.219 74.3301 288.919 72.5701C286.619 70.8101 283.649 69.4601 282.699 66.7101C282.539 65.9701 282.279 65.2501 281.929 64.5701C280.549 62.5101 277.339 63.8801 275.349 65.3401C274.669 65.8401 273.849 66.3101 273.009 66.6501C272.719 65.5001 272.179 64.4701 271.449 63.8501C270.099 62.6801 268.369 61.1301 268.959 59.4901C269.439 58.1401 271.129 57.7101 272.099 56.6601C274.039 54.5201 272.219 51.0301 269.909 49.2701C267.599 47.5101 264.639 46.1601 263.699 43.4101C263.529 42.6601 263.269 41.9401 262.909 41.2701C261.529 39.2101 258.319 40.5501 256.319 42.0301C254.329 43.5101 251.099 44.8101 249.739 42.7201C248.949 41.5201 249.409 39.8101 248.649 38.5901C247.379 36.5501 244.159 37.5201 242.329 39.0701C240.499 40.6201 238.479 42.6901 236.139 42.1501H236.119C236.719 41.9001 237.379 41.6901 237.939 41.4001C240.939 39.8201 240.519 34.0601 238.249 32.1301C236.879 30.9601 235.169 29.4301 235.759 27.7801C236.239 26.4301 237.929 26.0001 238.889 24.9301C240.849 22.7901 239.019 19.2801 236.719 17.5401C234.419 15.7901 231.449 14.4301 230.499 11.6801C230.339 10.9401 230.079 10.2201 229.729 9.54006C228.349 7.48006 225.119 8.83006 223.149 10.3101C221.169 11.7901 217.929 13.0801 216.569 10.9801C215.799 9.78005 216.239 8.08005 215.479 6.85005C214.229 4.81005 210.999 5.76006 209.169 7.33006C207.339 8.89006 205.319 10.9501 202.979 10.4101C200.939 9.93006 199.819 7.63006 197.649 7.36006C195.479 7.10006 193.749 9.32005 193.219 11.4401C192.689 13.5601 192.729 15.9001 191.569 17.7801C191.469 17.7601 191.359 17.7401 191.249 17.7301C189.779 16.6801 188.459 15.5301 187.879 13.8701C187.719 13.1301 187.459 12.4101 187.109 11.7301C185.729 9.67005 182.499 11.0101 180.519 12.4901C178.539 13.9701 175.299 15.2701 173.929 13.1801C173.159 11.9801 173.599 10.2701 172.839 9.05005C171.589 7.01005 168.359 7.98005 166.529 9.53005C164.699 11.0801 162.679 13.1501 160.339 12.5901C158.299 12.1101 157.179 9.81006 155.009 9.54006C152.839 9.28006 151.109 11.5001 150.579 13.6201C150.049 15.7401 150.089 18.0801 148.929 19.9601C145.769 19.3501 141.439 19.4701 140.699 22.5601C140.389 23.8801 140.949 25.1301 141.729 26.3001C141.339 26.5201 140.969 26.7601 140.649 27.0301C138.809 28.5801 136.779 30.6501 134.439 30.1101C132.419 29.6301 131.309 27.3301 129.119 27.0601C126.929 26.8001 125.199 29.0201 124.689 31.1401C124.179 33.2601 124.199 35.6001 123.039 37.4601C119.859 36.8701 115.549 36.9801 114.809 40.0801C114.319 42.1201 115.899 44.0101 117.199 45.6801C118.499 47.3401 119.589 49.7601 118.239 51.4101C116.059 51.3001 113.889 51.8401 112.019 52.9701C110.129 54.1801 109.379 56.5801 110.239 58.6501C111.199 60.0001 112.599 60.9701 114.189 61.4201C118.859 63.3101 117.369 67.4601 115.979 70.8001C115.819 70.7901 115.669 70.7901 115.499 70.7501C113.459 70.2701 112.339 67.9701 110.169 67.7001C107.999 67.4401 106.269 69.6601 105.739 71.7801C105.209 73.9001 105.249 76.2401 104.089 78.1001C100.909 77.5101 96.5995 77.6201 95.8595 80.7201C95.3695 82.7601 96.9595 84.6501 98.2495 86.3201C99.5295 87.9801 100.619 90.4001 99.2895 92.0501C97.0995 91.9601 94.9295 92.5401 93.0695 93.7001C91.1795 94.9101 90.4295 97.3001 91.2795 99.3801C92.2495 100.73 93.6495 101.7 95.2495 102.15C103.449 105.46 92.6795 115.75 96.7495 116.42C101.949 117.29 108.079 116.27 108.449 122.68C108.499 123.72 108.649 124.76 108.909 125.77C109.899 129.33 112.429 130.84 117.649 128.35C120.959 126.79 121.769 124.84 125.539 125.32C128.239 125.63 130.199 127.53 133.179 127.28C133.589 127.28 133.999 127.17 134.369 126.98C134.739 126.74 135.049 126.41 135.279 126.03C137.929 122.26 139.999 123.79 144.329 123.61C144.669 123.63 145.009 123.53 145.279 123.33C145.539 123.06 145.679 122.7 145.679 122.33C145.789 121.22 145.679 120.11 145.379 119.04C145.159 118.52 145.099 117.95 145.219 117.39C145.429 116.65 146.369 116.37 147.079 116.02C147.349 115.87 147.609 115.7 147.859 115.51C149.189 114.48 149.949 112.99 150.119 111.44C154.199 111.82 157.999 112.32 158.289 117.29C158.329 118.34 158.489 119.37 158.769 120.38C159.739 123.94 162.279 125.45 167.479 122.96C170.789 121.4 171.599 119.45 175.369 119.93C178.069 120.24 180.029 122.14 183.009 121.89C183.419 121.89 183.829 121.78 184.199 121.59C184.569 121.35 184.879 121.02 185.109 120.64C187.759 116.87 189.829 118.4 194.159 118.22C194.249 118.23 194.349 118.24 194.439 118.22C195.089 118.16 195.569 117.58 195.509 116.93C195.609 115.85 195.509 114.76 195.209 113.72C194.989 113.2 194.929 112.63 195.049 112.07C195.259 111.33 196.199 111.03 196.909 110.7C197.189 110.55 197.459 110.37 197.719 110.17C198.459 109.59 199.009 108.86 199.389 108.06C200.769 108.48 202.629 108.21 205.089 107.03C208.419 105.48 209.219 103.52 212.989 104.02C215.689 104.33 217.649 106.21 220.629 105.98C221.039 105.96 221.449 105.86 221.819 105.67C222.189 105.42 222.499 105.1 222.729 104.72C222.799 104.62 222.869 104.53 222.939 104.44C222.999 105.06 222.889 105.65 222.479 106.15C220.749 106.06 219.029 106.49 217.539 107.38C216.039 108.33 215.449 110.22 216.139 111.86C216.899 112.92 217.999 113.68 219.249 114.03C225.699 116.63 217.229 124.73 220.439 125.26C224.539 125.95 229.349 125.14 229.659 130.2C229.689 131.02 229.819 131.84 230.019 132.64C230.789 135.44 232.789 136.56 236.949 134.65C239.569 133.42 240.189 131.88 243.169 132.26C245.309 132.54 246.839 134 249.179 133.81C249.509 133.81 249.829 133.72 250.119 133.58C250.399 133.38 250.649 133.12 250.829 132.82C252.899 129.86 254.549 131.06 257.959 130.91C258.229 130.91 258.489 130.84 258.719 130.7C258.919 130.48 259.019 130.2 259.019 129.91C259.109 129.06 259.029 128.2 258.809 127.37C258.619 126.96 258.569 126.5 258.659 126.05C258.869 125.46 259.569 125.24 260.139 124.96C260.349 124.84 260.549 124.71 260.739 124.56C262.149 123.47 262.739 121.73 262.469 120.09C263.219 119.87 264.069 119.78 265.209 119.92C267.909 120.23 269.869 122.13 272.849 121.88C273.259 121.88 273.669 121.77 274.039 121.58C274.409 121.33 274.709 121 274.949 120.63C277.579 116.86 279.669 118.39 283.999 118.21C284.339 118.23 284.679 118.13 284.949 117.93C285.199 117.66 285.339 117.3 285.329 116.93C285.439 115.85 285.349 114.76 285.049 113.72C284.829 113.2 284.759 112.63 284.869 112.07C285.099 111.33 286.019 111.03 286.749 110.7C287.009 110.55 287.259 110.39 287.499 110.21C290.109 108.19 290.599 104.44 288.579 101.83C287.739 100.88 286.439 100.05 286.749 98.6701C287.059 97.2901 288.909 97.0701 290.159 96.4101C293.159 94.8301 292.739 89.0701 290.489 87.1401L290.449 87.15ZM147.249 105.22C147.059 104.85 146.969 104.45 147.079 103.98C147.199 103.44 147.569 103.08 148.029 102.8C147.839 103.61 147.559 104.43 147.249 105.23V105.22Z" fill="#E6E6E6"/>
<path d="M135.739 107.07C135.739 107.07 146.559 122.38 150.289 127.24C154.029 132.1 172.699 162.34 175.229 182.34C175.489 184.46 175.769 186.31 176.039 187.9C168.009 240.91 169.259 337.87 169.549 354.47H194.979C195.209 335.75 197.369 164.64 198.169 159.42C199.009 153.89 209.689 132.83 226.069 124.19C242.449 115.55 256.689 86.92 256.689 86.92H251.449C251.449 86.92 241.739 104.45 227.929 114.17C225.949 115.54 223.869 116.77 221.719 117.86C221.759 107.3 219.889 96.83 216.219 86.93L213.389 89.53C217.209 105.17 216.679 115.18 215.549 120.92C210.329 123.36 205.519 126.59 201.279 130.48C186.939 111.84 178.889 69.22 178.889 69.22L175.219 71.23C176.259 80.03 177.839 88.76 179.959 97.37C182.639 108.4 190.549 129.16 194.219 138.53C189.819 144.85 186.189 151.67 183.399 158.84C183.009 158.24 182.549 157.68 182.019 157.19C172.689 148.74 155.139 108.89 155.139 108.89C150.889 99.62 157.379 75.29 157.379 75.29H152.439L150.249 96.56L137.939 83.13L135.699 84.99L148.749 101.8L155.469 123.09L137.939 103.66L135.729 107.07H135.739Z" fill="#EBEBEB"/>
<path d="M652.4 122.58C650.54 121.46 648.38 120.92 646.21 121.02C644.89 119.42 645.95 116.96 647.26 115.32C648.56 113.68 650.12 111.8 649.63 109.75C648.9 106.68 644.59 106.57 641.5 107.17C640.63 105.17 640.06 103.04 639.81 100.87C639.26 98.74 637.57 96.6 635.39 96.79C633.21 96.98 632.1 99.35 630.1 99.82C629.95 99.86 629.79 99.85 629.63 99.86C628.24 96.52 626.71 92.35 631.4 90.47C632.98 90.03 634.37 89.06 635.33 87.72C636.18 85.65 635.44 83.27 633.56 82.06C631.7 80.94 629.54 80.39 627.37 80.5C626.03 78.88 627.11 76.44 628.39 74.8C629.67 73.16 631.27 71.26 630.78 69.23C630.03 66.16 625.74 66.05 622.63 66.65C621.77 64.64 621.2 62.52 620.94 60.35C620.38 58.22 618.81 56.08 616.54 56.27C614.28 56.46 613.25 58.83 611.25 59.3C609.25 59.77 606.98 57.78 605.08 56.25C604.77 56 604.41 55.77 604.04 55.55C604.8 54.39 605.33 53.15 605.01 51.85C604.28 48.78 599.97 48.67 596.88 49.27C596 47.23 595.43 45.07 595.19 42.87C594.64 40.74 592.95 38.6 590.77 38.79C588.59 38.98 587.48 41.35 585.48 41.82C583.15 42.38 581.21 40.3 579.31 38.77C577.41 37.23 574.29 36.27 573.06 38.3C572.29 39.52 572.74 41.2 571.97 42.42C570.6 44.55 567.4 43.19 565.4 41.72C563.39 40.25 560.23 38.92 558.83 40.97C558.47 41.64 558.21 42.36 558.06 43.1C557.44 44.84 556.01 46.02 554.46 47.11C553.6 45.11 553.03 43 552.78 40.84C552.23 38.71 550.65 36.57 548.38 36.78C546.12 36.99 545.09 39.32 543.09 39.79C541.08 40.26 538.82 38.3 536.92 36.74C535.02 35.18 531.9 34.24 530.64 36.27C529.89 37.49 530.34 39.19 529.55 40.39C528.21 42.52 524.98 41.18 523 39.71C521.01 38.24 517.81 36.89 516.4 38.94C516.05 39.62 515.79 40.33 515.63 41.07C514.69 43.8 511.75 45.15 509.46 46.9C507.18 48.65 505.34 52.13 507.33 54.26C508.29 55.31 509.98 55.73 510.45 57.08C511.05 58.74 509.34 60.26 507.97 61.35C505.73 63.25 505.3 68.99 508.29 70.57C508.81 70.84 509.43 71.04 509.99 71.26C507.7 71.72 505.78 69.72 503.91 68.2C502.01 66.66 498.89 65.68 497.63 67.71C496.88 68.93 497.33 70.63 496.54 71.83C495.2 73.96 491.97 72.62 489.97 71.15C487.96 69.68 484.8 68.33 483.4 70.38C483.06 71.06 482.8 71.77 482.63 72.51C481.69 75.24 478.75 76.59 476.44 78.34C474.13 80.09 472.34 83.57 474.31 85.7C475.25 86.75 476.94 87.17 477.43 88.52C477.92 89.86 476.3 91.7 474.95 92.79C474.2 93.43 473.66 94.49 473.37 95.68C472.54 95.34 471.73 94.86 471.06 94.37C469.07 92.9 465.87 91.55 464.49 93.6C464.13 94.27 463.86 94.99 463.7 95.73C462.76 98.46 459.82 99.81 457.53 101.56C455.25 103.31 453.41 106.79 455.4 108.92C456.36 109.97 458.05 110.39 458.52 111.74C459.12 113.4 457.41 114.9 456.04 116.01C453.91 117.93 453.37 123.67 456.36 125.25C457.62 125.89 459.46 126.1 459.75 127.49C460.05 128.88 458.77 129.62 457.94 130.63C455.94 133.22 456.41 136.95 459.01 138.95C459.25 139.13 459.5 139.3 459.76 139.44C460.49 139.78 461.36 140.06 461.62 140.83C461.74 141.39 461.68 141.97 461.45 142.49C461.17 143.52 461.07 144.6 461.17 145.67C461.17 146.04 461.31 146.4 461.55 146.67C461.83 146.86 462.16 146.95 462.49 146.95C466.76 147.14 468.89 145.61 471.52 149.36C471.74 149.74 472.05 150.06 472.42 150.3C472.78 150.5 473.18 150.6 473.59 150.6C476.56 150.86 478.48 149 481.19 148.66C482.31 148.52 483.15 148.61 483.88 148.82C483.65 150.42 484.24 152.1 485.61 153.16C485.8 153.31 486.01 153.45 486.23 153.57C486.79 153.85 487.49 154.06 487.7 154.66C487.79 155.11 487.74 155.57 487.55 155.98C487.33 156.79 487.26 157.64 487.34 158.48C487.27 158.97 487.62 159.42 488.11 159.49C488.2 159.5 488.3 159.5 488.39 159.49C491.78 159.64 493.41 158.44 495.48 161.39C495.66 161.68 495.9 161.94 496.18 162.14C496.47 162.29 496.79 162.37 497.12 162.37C499.45 162.56 500.98 161.11 503.1 160.83C506.07 160.47 506.69 161.98 509.29 163.2C513.45 165.29 515.44 164.1 516.21 161.3C516.41 160.51 516.53 159.7 516.57 158.89C516.87 153.87 521.67 154.62 525.75 153.98C528.93 153.45 520.5 145.44 526.92 142.79C528.17 142.46 529.26 141.7 530.02 140.66C530.68 139.03 530.09 137.16 528.61 136.2C527.14 135.32 525.45 134.9 523.74 134.98C523.32 134.46 523.21 133.85 523.3 133.21C523.35 133.28 523.4 133.33 523.45 133.4C523.68 133.78 523.98 134.11 524.35 134.36C524.72 134.54 525.13 134.65 525.55 134.66C528.52 134.89 530.44 133.06 533.15 132.72C536.91 132.23 537.7 134.17 541.01 135.73C543.46 136.96 545.32 137.26 546.7 136.85C547.08 137.63 547.62 138.35 548.36 138.92C548.61 139.11 548.87 139.29 549.15 139.44C549.88 139.78 550.75 140.06 551.01 140.83C551.12 141.39 551.06 141.97 550.84 142.49C550.56 143.52 550.46 144.6 550.56 145.67C550.56 146.04 550.69 146.4 550.94 146.67C551.22 146.86 551.54 146.95 551.88 146.95C556.15 147.14 558.28 145.61 560.89 149.36C561.11 149.74 561.42 150.06 561.79 150.3C562.16 150.49 562.57 150.6 562.99 150.6C565.94 150.86 567.88 149 570.59 148.66C574.35 148.19 575.14 150.11 578.45 151.67C583.62 154.21 586.13 152.65 587.12 149.11C587.39 148.11 587.55 147.07 587.59 146.04C587.89 141.04 591.63 140.57 595.76 140.2C595.94 141.72 596.69 143.17 597.99 144.18C598.24 144.37 598.5 144.55 598.78 144.7C599.48 145.04 600.36 145.32 600.64 146.07C600.75 146.64 600.69 147.22 600.47 147.76C600.18 148.79 600.08 149.87 600.17 150.94C600.17 151.31 600.31 151.67 600.55 151.94C600.83 152.13 601.17 152.23 601.51 152.22C605.78 152.41 607.91 150.88 610.52 154.63C610.74 155.01 611.05 155.33 611.42 155.57C611.78 155.77 612.18 155.87 612.59 155.87C615.56 156.13 617.5 154.27 620.19 153.93C623.95 153.46 624.74 155.38 628.05 156.94C633.22 159.52 635.73 158.03 636.72 154.49C636.97 153.48 637.12 152.45 637.17 151.42C637.55 145.02 643.57 146.04 648.83 145.19C652.89 144.51 642.17 134.28 650.32 130.99C651.91 130.56 653.3 129.58 654.25 128.24C655.1 126.17 654.36 123.79 652.48 122.58H652.4ZM597.73 131.65C598.2 131.92 598.57 132.25 598.69 132.76C598.8 133.22 598.69 133.63 598.49 134.01C598.19 133.24 597.91 132.44 597.73 131.65Z" fill="#E6E6E6"/>
<path d="M609.989 135.9C609.989 135.9 599.209 151.14 595.499 155.97C591.789 160.79 573.209 190.87 570.699 210.79C570.419 212.92 570.149 214.74 569.889 216.34C577.869 269.06 576.639 365.53 576.289 382.05H550.949C550.719 363.41 548.559 193.18 547.769 187.99C546.939 182.48 536.349 161.54 520.019 152.94C503.689 144.34 489.619 115.82 489.619 115.82H494.829C494.829 115.82 504.499 133.26 518.309 142.93C520.289 144.28 522.349 145.51 524.479 146.6C524.419 136.1 526.249 125.67 529.879 115.82L532.699 118.4C528.899 133.96 529.409 144.02 530.569 149.63C535.759 152.06 540.559 155.27 544.789 159.15C559.049 140.6 567.049 98.21 567.049 98.21L570.719 100.22C569.639 108.99 568.029 117.69 565.899 126.26C563.229 137.23 555.359 157.9 551.699 167.27C556.039 173.57 559.619 180.35 562.369 187.48C562.759 186.87 563.219 186.32 563.759 185.84C573.049 177.43 590.509 137.77 590.509 137.77C594.779 128.55 588.269 104.34 588.269 104.34H593.159L595.289 125.52L607.539 112.16L609.779 114.02L596.989 130.78L590.289 151.96L607.749 132.64L609.989 135.93V135.9Z" fill="#EBEBEB"/>
<path d="M31.1493 376.91H718.71C726.37 376.91 732.58 381.55 732.58 387.26V402.84H17.2793V387.24C17.2793 381.53 23.4993 376.9 31.1493 376.9V376.91Z" fill="#F0F0F0"/>
<path d="M87.0198 62.3L82.7898 103.01H61.5698L57.3398 62.3H87.0198Z" fill="#E0E0E0"/>
<path d="M76.1302 94.26H68.2402V370.85H76.1302V94.26Z" fill="#E0E0E0"/>
<path d="M80.5598 100.53H63.7998L60.0898 64.78H84.2698L80.5598 100.53Z" fill="#F0F0F0"/>
<path d="M69.9698 101.08H68.8298L67.5898 63.54H68.7299L69.9698 101.08Z" fill="#E0E0E0"/>
<path d="M72.1809 49.22C72.1809 49.22 59.6009 61.61 49.9609 61.61L52.9509 63.58H91.3609L94.3509 61.61C84.7609 61.63 72.1809 49.22 72.1809 49.22Z" fill="#E0E0E0"/>
<path d="M694.281 49.8601L689.871 93.0001H667.801L663.391 49.8601H694.281Z" fill="#E0E0E0"/>
<path d="M682.94 83.73H674.729V376.91H682.94V83.73Z" fill="#E0E0E0"/>
<path d="M687.55 90.38H670.12L666.25 52.49H691.41L687.55 90.38Z" fill="#F0F0F0"/>
<path d="M676.541 90.9699H675.351L674.061 51.1699H675.251L676.541 90.9699Z" fill="#E0E0E0"/>
<path d="M678.831 35.99C678.831 35.99 665.751 49.12 655.721 49.12L658.831 51.21H698.791L701.901 49.12C691.921 49.15 678.841 35.99 678.841 35.99H678.831Z" fill="#E0E0E0"/>
<path d="M478.259 378.94H484.659L471.579 305.15H465.189L478.259 378.94Z" fill="#E0E0E0"/>
<path d="M279.541 378.94H285.931L272.861 305.15H266.461L279.541 378.94Z" fill="#E0E0E0"/>
<path d="M474.93 342.05H223.91V348.52H474.93V342.05Z" fill="#E0E0E0"/>
<path d="M419.291 378.94H412.891L425.971 305.15H432.361L419.291 378.94Z" fill="#E0E0E0"/>
<path d="M220.56 378.94H214.17L227.24 305.15H233.63L220.56 378.94Z" fill="#E0E0E0"/>
<path d="M278.561 302.28H284.921L295.571 243.07H289.211L278.561 302.28Z" fill="#E0E0E0"/>
<path d="M463.07 302.28H469.44L480.09 243.07H473.73L463.07 302.28Z" fill="#E0E0E0"/>
<path d="M370.82 302.28H377.17L387.83 243.07H381.46L370.82 302.28Z" fill="#E0E0E0"/>
<path d="M267.561 247.11H492.841L494.831 236.02H269.561L267.561 247.11Z" fill="#E0E0E0"/>
<path d="M263.949 267.16H489.229L491.229 256.07H265.949L263.949 267.16Z" fill="#E0E0E0"/>
<path d="M260.34 287.2H485.62L487.62 276.12H262.34L260.34 287.2Z" fill="#E0E0E0"/>
<path d="M483.96 300.54H212.82V308.2H483.96V300.54Z" fill="#E0E0E0"/>
<path d="M657.199 405.69C657.199 409.08 530.849 411.82 374.999 411.82C219.149 411.82 92.7988 409.07 92.7988 405.69C92.7988 402.31 219.149 399.56 374.999 399.56C530.849 399.56 657.199 402.31 657.199 405.69Z" fill="#F5F5F5"/>
<path d="M614.821 401.82H609.821V319.8C609.821 300.54 594.151 284.88 574.901 284.88C555.651 284.88 539.971 300.55 539.971 319.8V401.82H534.971V319.8C534.971 297.79 552.881 279.88 574.901 279.88C596.921 279.88 614.821 297.79 614.821 319.8V401.82Z" fill="#263238"/>
<path opacity="0.1" d="M614.821 401.82H609.821V319.8C609.821 300.54 594.151 284.88 574.901 284.88C555.651 284.88 539.971 300.55 539.971 319.8V401.82H534.971V319.8C534.971 297.79 552.881 279.88 574.901 279.88C596.921 279.88 614.821 297.79 614.821 319.8V401.82Z" fill="white"/>
<path d="M631.751 401.82H626.751V319.8C626.751 300.54 611.081 284.88 591.821 284.88C572.561 284.88 556.891 300.55 556.891 319.8V401.82H551.891V319.8C551.891 297.79 569.801 279.88 591.821 279.88C613.841 279.88 631.751 297.79 631.751 319.8V401.82Z" fill="#263238"/>
<path opacity="0.2" d="M631.751 401.82H626.751V319.8C626.751 300.54 611.081 284.88 591.821 284.88C572.561 284.88 556.891 300.55 556.891 319.8V401.82H551.891V319.8C551.891 297.79 569.801 279.88 591.821 279.88C613.841 279.88 631.751 297.79 631.751 319.8V401.82Z" fill="white"/>
<path d="M674.08 382.49C673.5 381.52 672.22 380.33 671.32 379.65C670.42 378.97 669.19 378.63 668.14 379.06C666.81 379.6 666.2 381.24 666.38 382.66C666.57 384.09 667.25 385.89 668.06 387.08C671.52 392.15 674.72 396.79 680.07 400.56C680.07 394.27 677.28 387.86 674.08 382.49Z" fill="#309874"/>
<path d="M691.71 383.36C690.51 382.71 688.29 383.63 687.2 384.45C685.04 386.07 683.72 387.77 682.4 390.13C680.73 393.12 680.53 397.33 680.32 400C684.55 396.57 688.86 393.04 691.76 388.43C692.27 387.62 692.73 386.76 692.83 385.81C692.92 384.86 692.55 383.82 691.71 383.36Z" fill="#309874"/>
<path d="M680.71 403.24C680.59 403.24 680.489 403.16 680.469 403.04C679.469 398.41 677.69 394.02 675.19 389.99C675.12 389.87 675.15 389.72 675.27 389.65C675.39 389.58 675.54 389.61 675.61 389.73C678.14 393.81 679.93 398.25 680.95 402.94C680.98 403.07 680.89 403.21 680.76 403.24C680.74 403.24 680.72 403.24 680.71 403.24Z" fill="#263238"/>
<path d="M680.151 400.65C680.151 400.65 680.091 400.65 680.071 400.64C679.941 400.59 679.871 400.45 679.921 400.32C681.061 397.19 682.711 394.31 684.841 391.75C684.931 391.64 685.091 391.63 685.191 391.72C685.301 391.81 685.31 391.97 685.22 392.07C683.13 394.58 681.501 397.41 680.381 400.49C680.341 400.59 680.251 400.66 680.141 400.66L680.151 400.65Z" fill="#263238"/>
<path d="M66.6703 381.83C66.0903 380.86 64.8103 379.67 63.9103 378.99C63.0103 378.31 61.7803 377.97 60.7303 378.4C59.4003 378.94 58.7903 380.58 58.9703 382C59.1603 383.43 59.8403 385.23 60.6503 386.42C64.1103 391.49 67.3103 396.13 72.6603 399.9C72.6603 393.61 69.8703 387.2 66.6703 381.83Z" fill="#309874"/>
<path d="M84.3002 382.7C83.1002 382.05 80.8802 382.97 79.7902 383.79C77.6302 385.41 76.3102 387.11 74.9902 389.47C73.3202 392.46 73.1202 396.67 72.9102 399.34C77.1402 395.91 81.4502 392.38 84.3502 387.77C84.8602 386.96 85.3202 386.1 85.4202 385.15C85.5102 384.2 85.1402 383.16 84.3002 382.7Z" fill="#309874"/>
<path d="M73.2896 402.58C73.1696 402.58 73.0696 402.5 73.0496 402.38C72.0496 397.75 70.2696 393.36 67.7696 389.33C67.6996 389.21 67.7296 389.06 67.8496 388.99C67.9696 388.92 68.1196 388.95 68.1896 389.07C70.7196 393.15 72.5096 397.59 73.5296 402.28C73.5596 402.41 73.4696 402.55 73.3396 402.58C73.3196 402.58 73.2996 402.58 73.2896 402.58Z" fill="#263238"/>
<path d="M72.7386 400C72.7386 400 72.6786 400 72.6486 399.99C72.5186 399.94 72.4486 399.8 72.4986 399.67C73.6286 396.54 75.2886 393.66 77.4186 391.1C77.5086 390.99 77.6686 390.98 77.7686 391.07C77.8786 391.16 77.8886 391.32 77.7986 391.42C75.7086 393.93 74.0786 396.76 72.9586 399.84C72.9186 399.94 72.8286 400.01 72.7286 400.01L72.7386 400Z" fill="#263238"/>
<path d="M503.429 142.38H497.029V401.82H503.429V142.38Z" fill="#263238"/>
<path opacity="0.6" d="M503.429 142.38H497.029V401.82H503.429V142.38Z" fill="white"/>
<path opacity="0.3" d="M503.429 155.33H497.029V159.05H503.429V155.33Z" fill="black"/>
<path d="M527.56 66.52H472.7C469.734 66.52 467.33 68.9243 467.33 71.89V149.96C467.33 152.926 469.734 155.33 472.7 155.33H527.56C530.526 155.33 532.93 152.926 532.93 149.96V71.89C532.93 68.9243 530.526 66.52 527.56 66.52Z" fill="#309874"/>
<path d="M526.021 151.18H474.451C472.801 151.18 471.461 149.84 471.461 148.19V73.5701C471.461 71.9201 472.801 70.5801 474.451 70.5801H526.021C527.671 70.5801 529.011 71.9201 529.011 73.5701V148.19C529.011 149.84 527.671 151.18 526.021 151.18ZM474.451 71.0801C473.081 71.0801 471.961 72.2001 471.961 73.5701V148.19C471.961 149.56 473.081 150.68 474.451 150.68H526.021C527.391 150.68 528.511 149.56 528.511 148.19V73.5701C528.511 72.2001 527.391 71.0801 526.021 71.0801H474.451Z" fill="white"/>
<path d="M507.441 84.73C509.251 85.55 510.641 86.71 511.621 88.21C512.601 89.71 513.081 91.5 513.081 93.55C513.081 95.6 512.591 97.36 511.621 98.87C510.641 100.39 509.251 101.55 507.441 102.35C505.631 103.16 503.501 103.56 501.051 103.56H495.471V111.2H489.061V83.49H501.061C503.511 83.49 505.641 83.9 507.451 84.72L507.441 84.73ZM505.091 97.1C506.091 96.27 506.591 95.09 506.591 93.56C506.591 92.03 506.091 90.81 505.091 89.98C504.091 89.15 502.621 88.73 500.701 88.73H495.471V98.35H500.701C502.631 98.35 504.091 97.93 505.091 97.1Z" fill="white"/>
<path d="M489.869 141.88C485.829 141.88 482.539 138.59 482.539 134.55C482.539 130.51 485.829 127.22 489.869 127.22C493.909 127.22 497.199 130.51 497.199 134.55C497.199 138.59 493.909 141.88 489.869 141.88ZM489.869 128.22C486.379 128.22 483.539 131.06 483.539 134.55C483.539 138.04 486.379 140.88 489.869 140.88C493.359 140.88 496.199 138.04 496.199 134.55C496.199 131.06 493.359 128.22 489.869 128.22Z" fill="white"/>
<path d="M512.25 141.88C508.21 141.88 504.92 138.59 504.92 134.55C504.92 130.51 508.21 127.22 512.25 127.22C516.29 127.22 519.58 130.51 519.58 134.55C519.58 138.59 516.29 141.88 512.25 141.88ZM512.25 128.22C508.76 128.22 505.92 131.06 505.92 134.55C505.92 138.04 508.76 140.88 512.25 140.88C515.74 140.88 518.58 138.04 518.58 134.55C518.58 131.06 515.74 128.22 512.25 128.22Z" fill="white"/>
<path d="M512.25 135.05C512.06 135.05 511.88 134.94 511.79 134.76L507.5 125.25H496.21L490.35 134.06H500.07C500.35 134.06 500.57 134.28 500.57 134.56C500.57 134.84 500.35 135.06 500.07 135.06H489.42C489.24 135.06 489.07 134.96 488.98 134.8C488.89 134.64 488.9 134.44 489 134.29L495.53 124.48C495.62 124.34 495.78 124.26 495.95 124.26H507.83C508.03 124.26 508.2 124.38 508.29 124.55L512.72 134.36C512.83 134.61 512.72 134.91 512.47 135.02C512.4 135.05 512.33 135.06 512.26 135.06L512.25 135.05Z" fill="white"/>
<path d="M507.829 125.24C507.629 125.24 507.449 125.12 507.369 124.93L505.769 121.11C505.659 120.86 505.779 120.57 506.029 120.46C507.359 119.89 509.529 118.96 509.699 118.87C509.949 118.75 510.249 118.85 510.369 119.09C510.489 119.34 510.389 119.64 510.149 119.76C509.949 119.86 507.859 120.76 506.889 121.18L508.299 124.54C508.409 124.79 508.289 125.09 508.029 125.19C507.969 125.22 507.899 125.23 507.839 125.23L507.829 125.24Z" fill="white"/>
<path d="M500.07 135.05C500.07 135.05 500.02 135.05 499.99 135.05C499.82 135.02 499.67 134.91 499.61 134.75C497.63 130.09 494.58 123.01 494.21 122.36C494.1 122.23 494.06 122.05 494.12 121.88C494.21 121.62 494.49 121.48 494.75 121.56C495.03 121.65 495.15 121.69 500.22 133.62L507.7 124.97C507.88 124.76 508.2 124.74 508.4 124.92C508.61 125.1 508.63 125.42 508.45 125.63L500.45 134.89C500.35 135 500.22 135.06 500.07 135.06V135.05Z" fill="white"/>
<path d="M491.891 121.32C491.891 121.71 492.211 122.03 492.601 122.03H497.681C498.071 122.03 498.391 121.71 498.391 121.32C498.391 120.93 498.071 120.61 497.681 120.61H492.601C492.211 120.61 491.891 120.93 491.891 121.32Z" fill="white"/>
<path opacity="0.2" d="M532.93 75.5601L467.33 108.19V122.03L532.93 89.4001V75.5601Z" fill="white"/>
<path opacity="0.2" d="M533.04 94.4399L467.43 127.07V134.55L533.04 102.44V94.4399Z" fill="white"/>
<path d="M331.11 143.56L334.56 170.51L361.57 185.45L354.16 192.86L327.35 185.01C322.69 183.72 319.22 179.83 318.47 175.06L314.41 149.38L331.12 143.56H331.11Z" fill="#E9B376"/>
<path d="M330.159 122.89C327.579 117 321.769 116 320.109 116.06C315.469 116.24 319.259 124.93 317.209 129.09C312.819 137.73 317.089 159.29 317.089 159.29L339.849 155.56C337.539 143.1 333.199 130.29 330.149 122.88L330.159 122.89Z" fill="#263238"/>
<path opacity="0.3" d="M324.93 158.52L325.29 139.97L330.16 157.28L324.93 158.52Z" fill="black"/>
<path d="M252.73 143C245.77 150.69 243.99 162.3 243.02 172.67C242.06 182.9 242.09 193.22 243.13 203.44C243.39 206.04 243.78 208.7 245.08 210.9C247.9 215.66 253.86 216.71 259.1 217.31C264.18 217.89 270.02 218.2 273.6 214.31C276.42 211.25 276.87 206.58 277.15 202.3C278.29 185.29 278.95 166.22 279.95 148.62C280.33 141.98 275.4 136.21 269.18 136.39C262.94 136.58 256.23 139.12 252.72 143H252.73Z" fill="#309874"/>
<g opacity="0.3">
<path d="M252.73 143C245.77 150.69 243.99 162.3 243.02 172.67C242.06 182.9 242.09 193.22 243.13 203.44C243.39 206.04 243.78 208.7 245.08 210.9C247.9 215.66 253.86 216.71 259.1 217.31C264.18 217.89 270.02 218.2 273.6 214.31C276.42 211.25 276.87 206.58 277.15 202.3C278.29 185.29 278.95 166.22 279.95 148.62C280.33 141.98 275.4 136.21 269.18 136.39C262.94 136.58 256.23 139.12 252.72 143H252.73Z" fill="white"/>
</g>
<path opacity="0.3" d="M273.56 189.48L242.35 185.94C242.29 191.78 242.55 197.62 243.13 203.44C243.39 206.04 243.78 208.7 245.08 210.9C247.9 215.66 253.86 216.71 259.1 217.31C264.18 217.89 270.02 218.2 273.6 214.31C274.49 213.34 275.13 212.2 275.62 210.98L273.56 189.49V189.48Z" fill="white"/>
<path d="M334.529 368.22L342.709 390.28L350.119 387.89L347.559 364.6L334.529 368.22Z" fill="#E9B376"/>
<path d="M341.91 399.56L348.63 399.51C348.63 399.51 349.98 398.78 350.78 398.87C351.58 398.96 354.35 399.47 354.35 399.47L372.19 399.34C372.04 398.59 371.86 397.93 371.66 397.34C371.41 396.62 371.12 396.01 370.8 395.5C369.68 393.7 368.17 393.07 366.53 392.98C364.03 392.84 356.13 387.65 356.13 387.65C356.13 387.65 353.27 386.67 353.09 383.64C353.02 382.5 351.33 381.13 350.53 381.02C348.9 380.8 348 381.84 347.77 383.47L347.51 385.37L343.74 384.81C343.74 384.81 339.89 382.91 340.09 384.78C340.2 385.85 340.88 390.61 341.32 394.38C341.42 395.26 341.52 396.09 341.6 396.82C341.79 398.44 341.91 399.56 341.91 399.56Z" fill="#263238"/>
<path d="M372.18 399.33L354.34 399.46C354.34 399.46 351.57 398.95 350.77 398.86C349.97 398.77 348.62 399.5 348.62 399.5L341.9 399.55C341.9 399.55 341.77 398.44 341.59 396.81L371.64 397.32C371.85 397.91 372.03 398.57 372.17 399.32L372.18 399.33Z" fill="#E0E0E0"/>
<path d="M360.05 389.57C359.97 389.49 359.84 389.48 359.74 389.55C359.3 389.85 358.93 390.26 358.68 390.79C358.55 391.07 358.95 391.33 359.08 391.05C359.3 390.59 359.62 390.22 360.01 389.96C360.14 389.87 360.16 389.69 360.05 389.59V389.57Z" fill="white"/>
<path d="M358.62 388.74C358.54 388.66 358.41 388.65 358.31 388.72C357.87 389.02 357.5 389.43 357.25 389.96C357.12 390.23 357.52 390.5 357.65 390.22C357.87 389.76 358.19 389.39 358.58 389.13C358.71 389.04 358.73 388.86 358.62 388.75V388.74Z" fill="white"/>
<path d="M357.15 387.97C357.07 387.89 356.94 387.88 356.84 387.95C356.4 388.25 356.03 388.66 355.78 389.19C355.65 389.47 356.05 389.73 356.18 389.45C356.4 388.99 356.72 388.62 357.11 388.36C357.24 388.27 357.26 388.09 357.15 387.98V387.97Z" fill="white"/>
<path d="M255.071 353.06L244.461 374.06L251.261 377.86L266.591 360.15L255.071 353.06Z" fill="#E9B376"/>
<path d="M237.119 379.78L241.729 384.67C241.729 384.67 243.189 385.16 243.659 385.81C244.129 386.46 245.649 388.83 245.649 388.83L257.879 401.81C258.329 401.19 258.689 400.61 258.979 400.06C259.339 399.39 259.589 398.76 259.739 398.18C260.289 396.14 259.729 394.6 258.679 393.34C257.079 391.41 255.509 382.1 255.509 382.1C255.509 382.1 254.279 379.34 256.379 377.15C257.169 376.33 257.029 374.15 256.559 373.49C255.609 372.14 254.239 372.19 252.889 373.13L251.319 374.23L249.159 371.08C249.159 371.08 247.939 366.97 246.699 368.39C245.989 369.2 242.969 372.94 240.499 375.82C239.919 376.49 239.379 377.13 238.899 377.69C237.839 378.93 237.109 379.78 237.109 379.78H237.119Z" fill="#263238"/>
<path d="M257.879 401.82L245.649 388.84C245.649 388.84 244.139 386.46 243.659 385.82C243.179 385.17 241.729 384.68 241.729 384.68L237.119 379.79C237.119 379.79 237.849 378.94 238.909 377.7L258.979 400.07C258.689 400.62 258.319 401.21 257.879 401.82Z" fill="#E0E0E0"/>
<path d="M256.781 386.28C256.781 386.16 256.701 386.07 256.591 386.04C256.071 385.92 255.521 385.93 254.971 386.11C254.681 386.2 254.761 386.67 255.051 386.58C255.541 386.43 256.031 386.41 256.481 386.52C256.631 386.55 256.781 386.45 256.781 386.29V386.28Z" fill="white"/>
<path d="M256.412 384.68C256.412 384.56 256.332 384.47 256.222 384.44C255.702 384.32 255.152 384.33 254.602 384.51C254.312 384.6 254.392 385.07 254.682 384.98C255.172 384.83 255.662 384.81 256.112 384.92C256.262 384.95 256.412 384.85 256.412 384.69V384.68Z" fill="white"/>
<path d="M255.98 383.08C255.98 382.96 255.9 382.87 255.79 382.84C255.27 382.72 254.72 382.73 254.17 382.91C253.88 383 253.96 383.47 254.25 383.38C254.74 383.23 255.23 383.21 255.68 383.32C255.83 383.35 255.98 383.25 255.98 383.09V383.08Z" fill="white"/>
<path d="M312.001 294.03C311.381 296.02 310.79 297.82 310.27 299.38C304.76 315.32 262.201 375.83 262.201 375.83L244.771 362.6C244.771 362.6 269.721 310.39 284.671 292.25C284.671 292.25 285.331 265.75 287.201 245.92C293.491 262.5 301.791 278.6 312.001 294.04V294.03Z" fill="#309874"/>
<path opacity="0.4" d="M312.001 294.03C311.381 296.02 310.79 297.82 310.27 299.38C304.76 315.32 262.201 375.83 262.201 375.83L244.771 362.6C244.771 362.6 269.721 310.39 284.671 292.25C284.671 292.25 285.331 265.75 287.201 245.92C293.491 262.5 301.791 278.6 312.001 294.04V294.03Z" fill="black"/>
<path d="M351.609 372.55L333.499 377.98C316.459 330.54 308.969 297.3 308.969 297.3C308.279 296.19 307.599 295.09 306.939 294.01C297.439 278.56 289.719 262.45 283.869 245.86C279.909 239.21 277.589 231.69 277.259 223.96C276.569 207.94 281.679 197.8 281.679 197.8L288.069 194.57H288.199L328.139 201.73C328.139 201.73 324.919 213.06 321.119 232.78L335.629 289.29L351.609 372.54V372.55Z" fill="#309874"/>
<path opacity="0.3" d="M351.609 372.55L333.499 377.98C316.459 330.54 308.969 297.3 308.969 297.3C308.279 296.19 307.599 295.09 306.939 294.01C297.439 278.56 289.719 262.45 283.869 245.86C279.909 239.21 277.589 231.69 277.259 223.96C276.569 207.94 281.679 197.8 281.679 197.8L288.069 194.57H288.199L328.139 201.73C328.139 201.73 324.919 213.06 321.119 232.78L335.629 289.29L351.609 372.54V372.55Z" fill="black"/>
<path opacity="0.3" d="M277.192 216.91V221.33C277.192 221.33 285.252 222.83 299.832 224.38C314.412 225.93 322.942 223.69 322.942 223.69L323.742 219.93L277.182 216.91H277.192Z" fill="black"/>
<path d="M276.249 131.39L272.369 216.12C290.719 222.13 310.629 222.74 330.299 218.95C330.299 218.95 331.509 214.77 329.779 212.76C328.619 211.41 326.909 163.61 326.089 136.73C326.039 134.44 328.869 124.87 326.909 119.68C325.539 116.06 319.659 116.01 318.059 115.94H295.579C294.079 115.92 282.209 116.93 279.939 118.27C276.059 120.56 276.149 124.55 276.259 131.39H276.249Z" fill="#263238"/>
<path opacity="0.3" d="M274.711 161.79L279.401 161.96L281.131 144.12L275.061 158.19L274.711 161.79Z" fill="black"/>
<path d="M295.082 65.91C295.582 65.5 296.292 65.38 296.922 65.54C297.552 65.7 298.102 66.11 298.492 66.63L294.482 67.66C294.312 67.03 294.572 66.33 295.082 65.92V65.91Z" fill="#309874"/>
<path d="M314.68 75.27L316.28 77.59C316.28 77.59 320.921 76.68 319.981 81.04C321.431 82 321.83 83.96 320.86 85.41C320.54 85.89 320.1 86.27 319.59 86.51C319.59 86.51 319.311 93.72 312.951 89.27C306.591 84.82 308.891 75.41 308.891 75.41L314.68 75.27Z" fill="#263238"/>
<path d="M294.17 115.71C294.17 115.71 295.06 109.31 291.31 98.2001C291.31 98.1901 291.89 97.9001 291.89 97.8901C291.37 96.3401 290.83 94.9001 290.33 93.6601C290.32 93.6201 290.32 93.6101 290.32 93.6101L306.11 102.45C305.91 106.06 307.5 112.95 308.4 115.85C308.4 115.85 310.57 121.08 303.51 121.62C298.35 122.01 294.17 115.7 294.17 115.7V115.71Z" fill="#E9B376"/>
<path opacity="0.2" d="M306.6 107.5L297.66 105.89C298.58 108.61 301.16 111.77 307.33 111.76C307.33 111.76 306.58 108.71 306.6 107.5Z" fill="black"/>
<path d="M315.591 75.42C317.561 78.9 318.541 86.7 312.801 85.31C307.061 83.93 312.211 69.44 315.591 75.42Z" fill="#263238"/>
<path d="M285.592 85.26L285.332 88.72C285.332 88.72 279.662 88.99 282.502 94.38C282.502 94.38 279.112 100.69 285.752 100.59C285.752 100.59 286.472 106.19 291.832 102.49C297.192 98.79 297.292 88.71 297.292 88.71L294.902 78.54L287.852 82.72L285.592 85.26Z" fill="#263238"/>
<path d="M289.87 86.15C291.33 95.86 291.96 101.36 297.34 105.89C305.43 112.7 316.83 107.3 318.3 97.32C319.62 88.34 317.01 73.98 307.1 71.03C297.34 68.13 288.41 76.44 289.87 86.15Z" fill="#E9B376"/>
<path d="M286.739 94.6301C287.739 97.0701 289.779 98.8201 291.799 99.6101C294.839 100.8 296.709 98.1501 296.169 95.1001C295.679 92.3501 293.499 88.4301 290.309 88.5401C287.159 88.6501 285.599 91.8401 286.739 94.6401V94.6301Z" fill="#E9B376"/>
<path d="M304.089 87.9901C304.179 88.9901 304.779 89.7501 305.429 89.6801C306.079 89.6201 306.539 88.7501 306.449 87.7601C306.359 86.7601 305.759 86.0001 305.109 86.0701C304.459 86.1301 303.999 87.0001 304.089 87.9901Z" fill="#263238"/>
<path d="M313.9 87.7401C313.99 88.7401 314.59 89.5001 315.24 89.4301C315.89 89.3701 316.35 88.5001 316.26 87.5101C316.17 86.5101 315.57 85.7501 314.92 85.8201C314.27 85.8801 313.81 86.7501 313.9 87.7401Z" fill="#263238"/>
<path d="M310.67 86.79C310.67 86.79 314.27 91.47 315.46 93.4C314.18 94.78 311.74 94.41 311.74 94.41L310.67 86.78V86.79Z" fill="#D58745"/>
<path d="M301.229 83.24C301.389 83.29 301.559 83.25 301.689 83.13C303.229 81.7 304.909 82.08 304.929 82.08C305.179 82.14 305.439 81.99 305.499 81.73C305.559 81.48 305.409 81.23 305.159 81.17C305.069 81.15 302.959 80.67 301.049 82.45C300.859 82.63 300.849 82.92 301.029 83.11C301.089 83.17 301.159 83.21 301.229 83.24Z" fill="#263238"/>
<path opacity="0.2" d="M293.442 94.5101C293.322 94.5101 293.222 94.4301 293.202 94.3101C293.042 93.5201 292.672 92.7801 292.142 92.1801C291.792 91.7901 291.232 91.3001 290.522 91.1901C289.882 91.0901 289.222 91.3701 288.962 91.8601C288.892 91.9801 288.742 92.0201 288.622 91.9601C288.502 91.8901 288.462 91.7401 288.522 91.6201C288.892 90.9501 289.752 90.5701 290.602 90.7001C291.472 90.8301 292.122 91.4001 292.522 91.8601C293.112 92.5301 293.522 93.3501 293.702 94.2201C293.732 94.3601 293.642 94.4901 293.502 94.5101C293.482 94.5101 293.472 94.5101 293.452 94.5101H293.442Z" fill="black"/>
<path d="M302.18 94.97L310.79 97.58C310.32 98.53 309.84 99.49 309.14 100.28C308.44 101.07 307.53 101.43 306.47 101.49C304.96 101.58 303.51 100.77 302.83 99.41C302.16 98.05 302.09 96.48 302.18 94.97Z" fill="black"/>
<path d="M310.1 97.37C310.1 97.37 309.55 98.46 309.03 98.63C308.51 98.8 302.15 96.55 302.15 96.55L302.18 94.97L310.1 97.37Z" fill="white"/>
<path d="M307.551 101.3C307.551 101.3 307.071 99.8199 305.301 99.1699C303.521 98.5299 302.621 98.9199 302.621 98.9199C302.621 98.9199 303.201 100.68 304.871 101.24C306.541 101.8 307.551 101.3 307.551 101.3Z" fill="#DE5753"/>
<path d="M289.841 89.6299C289.841 89.6299 290.051 94.6999 293.391 94.0599C296.731 93.4199 293.511 87.6799 294.851 85.7199C296.561 83.5899 297.091 80.7399 296.251 78.1399C295.131 75.2599 288.701 83.1599 288.701 83.1599L289.841 89.6299Z" fill="#263238"/>
<path d="M285.531 89.53C294.191 81.7 305.521 77.49 317.181 77.76C317.181 77.76 310.101 60.67 295.211 67.09C280.751 73.33 285.531 89.53 285.531 89.53Z" fill="#309874"/>
<path d="M317.991 82.6401C318.081 82.6101 318.151 82.5601 318.211 82.4901C318.371 82.2901 318.351 81.9901 318.151 81.8301C316.151 80.1801 314.101 80.8401 314.001 80.8501C313.751 80.9301 313.621 81.1901 313.691 81.4401C313.771 81.6901 314.031 81.8201 314.271 81.7501C314.351 81.7201 315.951 81.2401 317.551 82.5601C317.681 82.6601 317.841 82.6901 317.981 82.6401H317.991Z" fill="#263238"/>
<path d="M317.182 77.7601C317.182 77.7601 329.612 68.3701 317.002 65.9601C304.392 63.5501 293.932 83.5501 293.932 83.5501C301.052 79.6501 309.062 77.6501 317.182 77.7601Z" fill="#309874"/>
<path d="M308.149 145.28L305.969 123.51L305.779 121.65L305.049 121.72C305.259 122.6 304.739 123.48 303.879 123.73L302.659 123.87C300.879 124.06 299.629 126.21 299.859 128.67C300.089 131.13 301.749 133 303.529 132.75L304.769 132.61C305.529 132.53 306.229 133.3 306.319 134.35C306.419 135.4 305.899 136.31 305.149 136.39L303.909 136.53C302.109 136.72 300.859 138.9 301.089 141.39C301.319 143.88 302.989 145.77 304.789 145.58L306.039 145.44C306.799 145.36 307.499 146.15 307.599 147.21L308.329 147.13L308.139 145.28H308.149Z" fill="#309874"/>
<path d="M302.291 141.34C302.471 143.12 303.561 144.54 304.671 144.42L302.291 141.34Z" fill="white"/>
<path d="M301.029 128.56C301.209 130.32 302.299 131.7 303.409 131.58L301.029 128.56Z" fill="white"/>
<path d="M239.031 185.22C238.891 185.22 238.791 185.1 238.791 184.96C239.081 178.46 239.561 171.89 240.211 165.42C240.221 165.28 240.361 165.18 240.481 165.2C240.621 165.21 240.721 165.34 240.701 165.47C240.051 171.93 239.571 178.49 239.281 184.98C239.281 185.11 239.161 185.22 239.031 185.22Z" fill="#309874"/>
<path d="M452.161 401.82H447.161V319.8C447.161 300.54 431.491 284.88 412.231 284.88C392.971 284.88 377.301 300.55 377.301 319.8V401.82H372.301V319.8C372.301 297.79 390.211 279.88 412.231 279.88C434.251 279.88 452.161 297.79 452.161 319.8V401.82Z" fill="#263238"/>
<path opacity="0.3" d="M452.161 401.82H447.161V319.8C447.161 300.54 431.491 284.88 412.231 284.88C392.971 284.88 377.301 300.55 377.301 319.8V401.82H372.301V319.8C372.301 297.79 390.211 279.88 412.231 279.88C434.251 279.88 452.161 297.79 452.161 319.8V401.82Z" fill="white"/>
<path d="M352.37 182.35L361.11 185.61L367.08 185.78C367.08 185.78 371.47 187.54 371.86 189.17C372.25 190.8 371.23 194.32 371.23 194.32C371.23 194.32 370.8 197.5 367.77 197.06C367.77 197.06 367.63 200.08 364.15 199.66C364.15 199.66 365.18 202.01 361.82 201.14C358.46 200.27 356.9 198.13 355.75 196.39C354.6 194.65 353.31 193 353.31 193L341.83 187.43L352.37 182.34V182.35Z" fill="#E9B376"/>
<path d="M365.41 225.22C364.3 225.22 363.25 224.53 362.86 223.42C362.35 222.01 363.09 220.46 364.5 219.95L369.65 218.11C372.44 217.11 374.65 215.07 375.87 212.38C377.09 209.68 377.17 206.68 376.09 203.92C374.01 198.63 368.13 195.83 362.71 197.54L330.82 207.64C329.39 208.09 327.87 207.3 327.41 205.87C326.96 204.44 327.75 202.92 329.18 202.47L361.07 192.37C369.2 189.8 378.01 194 381.13 201.93C382.76 206.07 382.64 210.57 380.81 214.62C378.97 218.67 375.66 221.72 371.47 223.22L366.32 225.06C366.02 225.17 365.71 225.22 365.41 225.22Z" fill="#309874"/>
<g opacity="0.2">
<path d="M365.41 225.22C364.3 225.22 363.25 224.53 362.86 223.42C362.35 222.01 363.09 220.46 364.5 219.95L369.65 218.11C372.44 217.11 374.65 215.07 375.87 212.38C377.09 209.68 377.17 206.68 376.09 203.92C374.01 198.63 368.13 195.83 362.71 197.54L330.82 207.64C329.39 208.09 327.87 207.3 327.41 205.87C326.96 204.44 327.75 202.92 329.18 202.47L361.07 192.37C369.2 189.8 378.01 194 381.13 201.93C382.76 206.07 382.64 210.57 380.81 214.62C378.97 218.67 375.66 221.72 371.47 223.22L366.32 225.06C366.02 225.17 365.71 225.22 365.41 225.22Z" fill="black"/>
</g>
<path d="M364.079 188.27L363.739 195.11C363.719 195.56 363.699 196.02 363.879 196.43C364.229 197.2 365.229 197.5 366.049 197.28C366.869 197.06 367.519 196.45 368.049 195.79C369.439 194.08 370.279 191.93 370.419 189.74L364.069 188.27H364.079Z" fill="#E9B376"/>
<path d="M333.56 389.74L332.68 389.27L361.4 335.46H298.24V334.46H363.06L333.56 389.74Z" fill="#263238"/>
<path d="M420.619 345.77L361.439 335.02L392.269 283.1L393.129 283.61L363.039 334.3L420.789 344.78L420.619 345.77Z" fill="#263238"/>
<path d="M382.86 389.68L361.79 334.9C352.18 321.81 327.15 287.8 326.01 286.76L326.6 285.95C327.55 286.58 356.79 326.39 362.64 334.36L362.7 334.48L383.79 389.32L382.86 389.68Z" fill="#263238"/>
<path d="M133.971 389.74L133.081 389.27L161.801 335.46H98.6406V334.46H163.471L133.971 389.74Z" fill="#263238"/>
<path d="M221.02 345.77L161.85 335.02L192.67 283.1L193.53 283.61L163.44 334.3L221.2 344.78L221.02 345.77Z" fill="#263238"/>
<path d="M183.27 389.68L162.2 334.9C152.59 321.81 127.56 287.8 126.42 286.76L127.01 285.95C127.96 286.58 157.2 326.39 163.05 334.36L163.11 334.48L184.2 389.32L183.27 389.68Z" fill="#263238"/>
<path d="M161.39 276.5C193.68 276.5 219.86 302.68 219.86 334.97C219.86 367.26 193.68 393.44 161.39 393.44C129.1 393.44 102.92 367.26 102.92 334.97C102.95 302.69 129.11 276.54 161.39 276.5ZM161.39 268.11C124.47 268.11 94.5295 298.03 94.5195 334.96C94.5195 371.88 124.44 401.82 161.37 401.83C198.29 401.83 228.23 371.91 228.24 334.98C228.24 298.04 198.31 268.11 161.38 268.11H161.39Z" fill="#263238"/>
<path d="M161.39 278.99C192.3 278.99 217.36 304.04 217.37 334.95C217.37 365.86 192.32 390.92 161.41 390.93C130.5 390.93 105.44 365.88 105.43 334.97C105.46 304.06 130.49 279.03 161.39 278.99ZM161.39 270.96C126.05 270.96 97.4004 299.61 97.4004 334.95C97.4004 370.29 126.05 398.94 161.39 398.94C196.73 398.94 225.38 370.29 225.38 334.95C225.38 299.61 196.73 270.96 161.39 270.96Z" fill="#309874"/>
<path d="M362.231 276.5C394.521 276.5 420.701 302.67 420.711 334.95C420.721 367.23 394.541 393.42 362.261 393.43C329.971 393.43 303.791 367.26 303.781 334.98C303.811 302.69 329.971 276.54 362.251 276.5M362.251 268.11C325.331 268.11 295.391 298.04 295.391 334.97C295.391 371.9 325.321 401.83 362.251 401.83C399.181 401.83 429.111 371.9 429.111 334.97C429.111 298.04 399.181 268.11 362.251 268.11Z" fill="#263238"/>
<path d="M362.23 278.99C393.14 278.99 418.2 304.04 418.21 334.95C418.21 365.86 393.16 390.92 362.25 390.93C331.34 390.93 306.28 365.88 306.27 334.97C306.3 304.06 331.33 279.03 362.23 278.99ZM362.23 270.96C326.89 270.96 298.24 299.61 298.24 334.95C298.24 370.29 326.89 398.94 362.23 398.94C397.57 398.94 426.22 370.29 426.22 334.95C426.22 299.61 397.57 270.96 362.23 270.96Z" fill="#309874"/>
<path d="M366.751 344.246C371.865 341.743 373.982 335.567 371.478 330.453C368.975 325.339 362.8 323.222 357.686 325.725C352.571 328.229 350.455 334.404 352.958 339.518C355.461 344.632 361.636 346.749 366.751 344.246Z" fill="#263238"/>
<path d="M161.379 327.79C162.039 327.79 162.689 327.88 163.319 328.06H163.549L253.949 346.08C260.589 347.8 264.569 354.58 262.849 361.22C261.429 366.71 256.469 370.53 250.799 370.52C249.789 370.52 248.779 370.4 247.799 370.15L159.559 341.82H159.439C155.629 340.74 153.409 336.77 154.499 332.96C155.369 329.89 158.169 327.76 161.359 327.74M161.359 324.59C155.659 324.51 150.969 329.07 150.899 334.77C150.839 339.52 154.019 343.7 158.609 344.9L246.939 373.23C248.199 373.55 249.499 373.71 250.799 373.71C259.399 373.71 266.359 366.72 266.349 358.12C266.349 351.01 261.519 344.81 254.629 343.05L164.149 324.96C163.249 324.7 162.309 324.57 161.369 324.57H161.359V324.59Z" fill="#263238"/>
<path opacity="0.3" d="M161.379 327.79C162.039 327.79 162.689 327.88 163.319 328.06H163.549L253.949 346.08C260.589 347.8 264.569 354.58 262.849 361.22C261.429 366.71 256.469 370.53 250.799 370.52C249.789 370.52 248.779 370.4 247.799 370.15L159.559 341.82H159.439C155.629 340.74 153.409 336.77 154.499 332.96C155.369 329.89 158.169 327.76 161.359 327.74M161.359 324.59C155.659 324.51 150.969 329.07 150.899 334.77C150.839 339.52 154.019 343.7 158.609 344.9L246.939 373.23C248.199 373.55 249.499 373.71 250.799 373.71C259.399 373.71 266.359 366.72 266.349 358.12C266.349 351.01 261.519 344.81 254.629 343.05L164.149 324.96C163.249 324.7 162.309 324.57 161.369 324.57H161.359V324.59Z" fill="white"/>
<path d="M250.809 361.3C250.659 361.31 250.509 361.31 250.359 361.3C249.269 361.14 248.339 360.43 247.909 359.41L191.899 226.69C191.229 225.09 191.979 223.24 193.579 222.57C195.179 221.9 197.029 222.65 197.699 224.25L251.679 352.11L337.699 246.85C338.839 245.54 340.829 245.4 342.139 246.54C343.399 247.63 343.589 249.52 342.569 250.84L253.279 360.15C252.679 360.89 251.769 361.31 250.809 361.3Z" fill="#263238"/>
<path opacity="0.6" d="M250.809 361.3C250.659 361.31 250.509 361.31 250.359 361.3C249.269 361.14 248.339 360.43 247.909 359.41L191.899 226.69C191.229 225.09 191.979 223.24 193.579 222.57C195.179 221.9 197.029 222.65 197.699 224.25L251.679 352.11L337.699 246.85C338.839 245.54 340.829 245.4 342.139 246.54C343.399 247.63 343.589 249.52 342.569 250.84L253.279 360.15C252.679 360.89 251.769 361.31 250.809 361.3Z" fill="white"/>
<path opacity="0.3" d="M191.6 226.05L192.65 228.46L198.97 227.26L198.04 225.05L191.6 226.05Z" fill="black"/>
<path d="M161.389 337.06C160.229 337.06 159.289 336.13 159.289 334.97C159.289 334.66 159.359 334.35 159.489 334.06L201.589 245.18C202.029 244.11 203.259 243.6 204.329 244.04C205.399 244.48 205.909 245.71 205.469 246.78C205.439 246.85 205.409 246.91 205.379 246.98L163.289 335.86C162.939 336.6 162.199 337.07 161.389 337.07V337.06Z" fill="#263238"/>
<path opacity="0.6" d="M161.389 337.06C160.229 337.06 159.289 336.13 159.289 334.97C159.289 334.66 159.359 334.35 159.489 334.06L201.589 245.18C202.029 244.11 203.259 243.6 204.329 244.04C205.399 244.48 205.909 245.71 205.469 246.78C205.439 246.85 205.409 246.91 205.379 246.98L163.289 335.86C162.939 336.6 162.199 337.07 161.389 337.07V337.06Z" fill="white"/>
<path d="M362.23 338.11C360.79 338.11 359.53 337.13 359.18 335.74L333.92 237.44L203.77 249.21C202.03 249.37 200.5 248.08 200.34 246.35C200.18 244.61 201.47 243.08 203.2 242.92L336.01 230.91C337.55 230.77 338.96 231.76 339.35 233.26L365.28 334.15C365.71 335.83 364.7 337.55 363.01 337.98C362.76 338.06 362.49 338.11 362.22 338.12L362.23 338.11Z" fill="#263238"/>
<path opacity="0.6" d="M362.23 338.11C360.79 338.11 359.53 337.13 359.18 335.74L333.92 237.44L203.77 249.21C202.03 249.37 200.5 248.08 200.34 246.35C200.18 244.61 201.47 243.08 203.2 242.92L336.01 230.91C337.55 230.77 338.96 231.76 339.35 233.26L365.28 334.15C365.71 335.83 364.7 337.55 363.01 337.98C362.76 338.06 362.49 338.11 362.22 338.12L362.23 338.11Z" fill="white"/>
<path d="M336.87 237.79C335.31 238.02 333.81 236.95 333.35 235.29L325.74 207.54C325.23 205.7 326.17 203.8 327.84 203.29C329.51 202.78 331.27 203.86 331.78 205.7L339.46 233.46C339.97 235.3 339.02 237.2 337.36 237.71C337.21 237.76 337.05 237.79 336.89 237.81L336.87 237.79Z" fill="#263238"/>
<path opacity="0.6" d="M336.87 237.79C335.31 238.02 333.81 236.95 333.35 235.29L325.74 207.54C325.23 205.7 326.17 203.8 327.84 203.29C329.51 202.78 331.27 203.86 331.78 205.7L339.46 233.46C339.97 235.3 339.02 237.2 337.36 237.71C337.21 237.76 337.05 237.79 336.89 237.81L336.87 237.79Z" fill="white"/>
<path d="M347.969 200.01C348.209 201.36 347.379 202.68 346.019 203.11L323.369 210.24C321.869 210.72 320.269 209.94 319.789 208.51C319.309 207.08 320.149 205.53 321.649 205.05L344.299 197.86C345.799 197.39 347.399 198.16 347.869 199.6C347.909 199.73 347.949 199.87 347.969 200.01Z" fill="#263238"/>
<path opacity="0.4" d="M347.969 200.01C348.209 201.36 347.379 202.68 346.019 203.11L323.369 210.24C321.869 210.72 320.269 209.94 319.789 208.51C319.309 207.08 320.149 205.53 321.649 205.05L344.299 197.86C345.799 197.39 347.399 198.16 347.869 199.6C347.909 199.73 347.949 199.87 347.969 200.01Z" fill="white"/>
<path d="M173.21 225.61C177.91 230.52 202.55 225.03 209.82 223.54C215.6 222.35 219.88 222.2 217.48 216.73C215.51 212.25 201.48 214.07 192.02 214.17C189.6 214.2 187.18 213.97 184.85 213.31C175 210.54 164.5 214.45 173.22 225.61H173.21Z" fill="#309874"/>
<path d="M241.53 393.7C240.37 393.7 239.43 392.76 239.43 391.6C239.43 391.41 239.46 391.22 239.51 391.04L258.06 324.14C258.42 323.04 259.61 322.44 260.71 322.8C261.74 323.14 262.35 324.21 262.1 325.26L243.55 392.12C243.31 393.04 242.49 393.69 241.54 393.69L241.53 393.7Z" fill="#263238"/>
<path d="M265.281 326.81H246.741C245.581 326.81 244.641 325.87 244.641 324.71C244.641 323.55 245.581 322.61 246.741 322.61H265.281C266.441 322.61 267.381 323.55 267.381 324.71C267.381 325.87 266.441 326.81 265.281 326.81Z" fill="#263238"/>
<path d="M254.86 393.7H236.33C235.17 393.7 234.23 392.76 234.23 391.6C234.23 390.44 235.17 389.5 236.33 389.5H254.86C256.02 389.5 256.96 390.44 256.96 391.6C256.96 392.76 256.02 393.7 254.86 393.7Z" fill="#263238"/>
<path d="M161.39 324.65C167.09 324.65 171.7 329.27 171.7 334.96C171.7 340.65 167.08 345.27 161.39 345.27C155.7 345.27 151.08 340.65 151.08 334.96C151.08 329.27 155.7 324.65 161.39 324.65Z" fill="#263238"/>
<path d="M250.81 342.59C242.21 342.59 235.24 349.56 235.24 358.16C235.24 366.76 242.21 373.73 250.81 373.73C259.41 373.73 266.38 366.76 266.38 358.16C266.38 349.57 259.43 342.6 250.83 342.59H250.81Z" fill="#263238"/>
<path opacity="0.4" d="M250.861 348.76C245.671 348.76 241.461 352.97 241.461 358.16C241.461 363.35 245.671 367.56 250.861 367.56C256.051 367.56 260.261 363.35 260.261 358.16C260.261 352.97 256.061 348.77 250.871 348.76H250.861Z" fill="white"/>
<path opacity="0.3" d="M173.21 225.61C177.91 230.52 202.55 225.03 209.82 223.54C215.6 222.35 219.88 222.2 217.48 216.73C215.51 212.25 201.48 214.07 192.02 214.17C189.6 214.2 187.18 213.97 184.85 213.31C175 210.54 164.5 214.45 173.22 225.61H173.21Z" fill="black"/>
<path d="M334.571 235.33C333.391 235.33 332.311 234.56 331.961 233.37C331.551 231.93 332.381 230.43 333.821 230.01L339.071 228.5C341.921 227.68 344.251 225.79 345.651 223.17C347.051 220.55 347.311 217.56 346.411 214.74C344.671 209.33 338.981 206.16 333.461 207.52L299.381 216.55C297.931 216.93 296.451 216.07 296.061 214.62C295.681 213.17 296.541 211.69 297.991 211.3L332.111 202.26C340.431 200.2 348.961 204.95 351.571 213.07C352.931 217.3 352.531 221.79 350.441 225.71C348.351 229.63 344.851 232.47 340.581 233.7L335.331 235.21C335.081 235.28 334.831 235.32 334.581 235.32L334.571 235.33Z" fill="#309874"/>
<g opacity="0.2">
<path d="M334.571 235.33C333.391 235.33 332.311 234.56 331.961 233.37C331.551 231.93 332.381 230.43 333.821 230.01L339.071 228.5C341.921 227.68 344.251 225.79 345.651 223.17C347.051 220.55 347.311 217.56 346.411 214.74C344.671 209.33 338.981 206.16 333.461 207.52L299.381 216.55C297.931 216.93 296.451 216.07 296.061 214.62C295.681 213.17 296.541 211.69 297.991 211.3L332.111 202.26C340.431 200.2 348.961 204.95 351.571 213.07C352.931 217.3 352.531 221.79 350.441 225.71C348.351 229.63 344.851 232.47 340.581 233.7L335.331 235.21C335.081 235.28 334.831 235.32 334.581 235.32L334.571 235.33Z" fill="black"/>
</g>
<path d="M90.5106 325.8C90.5106 325.8 90.4906 325.8 90.4706 325.8C90.3306 325.78 90.2406 325.65 90.2606 325.52C92.3706 310.51 99.5306 296.17 109.43 287.16C109.53 287.07 109.69 287.07 109.78 287.18C109.87 287.28 109.87 287.44 109.76 287.53C99.9506 296.46 92.8506 310.69 90.7506 325.59C90.7306 325.71 90.6306 325.8 90.5006 325.8H90.5106Z" fill="#309874"/>
<path d="M111.09 286.42C111.02 286.42 110.95 286.39 110.9 286.34C110.81 286.24 110.82 286.08 110.92 285.99L112.14 284.91C112.24 284.82 112.4 284.83 112.49 284.93C112.58 285.03 112.57 285.19 112.47 285.28L111.25 286.36C111.25 286.36 111.14 286.42 111.08 286.42H111.09Z" fill="#309874"/>
<path d="M469.1 401.82H464.1V319.8C464.1 300.54 448.43 284.88 429.17 284.88C409.91 284.88 394.25 300.55 394.25 319.8V401.82H389.25V319.8C389.25 297.79 407.16 279.88 429.17 279.88C451.18 279.88 469.1 297.79 469.1 319.8V401.82Z" fill="#263238"/>
<path opacity="0.4" d="M469.1 401.82H464.1V319.8C464.1 300.54 448.43 284.88 429.17 284.88C409.91 284.88 394.25 300.55 394.25 319.8V401.82H389.25V319.8C389.25 297.79 407.16 279.88 429.17 279.88C451.18 279.88 469.1 297.79 469.1 319.8V401.82Z" fill="white"/>
<path d="M306.519 196.39L317.539 205.27L323.139 204.91C323.139 204.91 327.849 209.1 327.959 210.85C328.069 212.6 326.399 216.03 326.399 216.03C326.399 216.03 325.389 219.22 322.349 218.23C322.349 218.23 321.669 221.31 318.159 220.26C318.159 220.26 318.799 222.86 315.499 221.36C312.209 219.86 310.979 217.39 310.109 215.39C309.239 213.39 308.199 211.47 308.199 211.47L297.689 203.17L306.519 196.38V196.39Z" fill="#E9B376"/>
<path d="M291.68 117.2C291.84 117.21 284 118.45 282.16 120.89C277.78 126.69 272.4 135.97 266.42 151.42L289.02 160.4L294.78 134.44C293.9 124.37 291.68 117.21 291.68 117.21V117.2Z" fill="#263238"/>
<path d="M271.67 153.5C271.67 153.5 264.63 179.91 267.68 184.2C270.6 188.3 309.17 211.63 309.17 211.63L316.48 204.23L283.38 178.2L287.25 159.7L271.67 153.51V153.5Z" fill="#E9B376"/>
<path d="M287.491 118.19C287.491 118.19 292.541 116.77 293.771 127.7C296.531 152.18 285.561 171.02 285.561 171.02L283.381 178.18L285.561 180.06C285.561 180.06 290.881 176.12 296.071 162.52C301.261 148.92 303.221 121.3 294.191 116.33C294.191 116.33 289.661 114.99 287.501 118.18L287.491 118.19Z" fill="#309874"/>
<path opacity="0.3" d="M287.491 118.19C287.491 118.19 292.541 116.77 293.771 127.7C296.531 152.18 285.561 171.02 285.561 171.02L283.381 178.18L285.561 180.06C285.561 180.06 290.881 176.12 296.071 162.52C301.261 148.92 303.221 121.3 294.191 116.33C294.191 116.33 289.661 114.99 287.501 118.18L287.491 118.19Z" fill="white"/>
</g>
</g>
<defs>
<clipPath id="clip0_183_8684">
<rect width="750" height="412" fill="white"/>
</clipPath>
</defs>
</svg>
